<?xml version="1.0" encoding="UTF-8" standalone="no"?>
<!DOCTYPE svg PUBLIC "-//W3C//DTD SVG 1.1//EN"
 "http://www.w3.org/Graphics/SVG/1.1/DTD/svg11.dtd">
<!-- Generated by graphviz version 5.0.1 (20220820.1526)
 -->
<!-- Pages: 1 -->
<svg width="1080pt" height="260pt"
 viewBox="0.00 0.00 1080.00 260.09" xmlns="http://www.w3.org/2000/svg" xmlns:xlink="http://www.w3.org/1999/xlink">
<g id="graph0" class="graph" transform="scale(0.546409 0.546409) rotate(0) translate(4 472)">
<polygon fill="none" stroke="none" points="-4,4 -4,-472 1972.54,-472 1972.54,4 -4,4"/>
<!-- node0 -->
<g id="node1" class="node">
<title>node0</title>
<ellipse fill="cornflowerblue" stroke="black" cx="1442.29" cy="-450" rx="28.7" ry="18"/>
<text text-anchor="middle" x="1442.29" y="-446.3" font-family="Times New Roman,serif" font-size="14.00">a girl</text>
</g>
<!-- node1 -->
<g id="node2" class="node">
<title>node1</title>
<ellipse fill="cornflowerblue" stroke="black" cx="1292.29" cy="-378" rx="40.89" ry="18"/>
<text text-anchor="middle" x="1292.29" y="-374.3" font-family="Times New Roman,serif" font-size="14.00">a human</text>
</g>
<!-- node0&#45;&gt;node1 -->
<g id="edge1" class="edge">
<title>node0&#45;&gt;node1</title>
<path fill="none" stroke="red" d="M1419.84,-438.52C1395.68,-427.25 1356.91,-409.15 1328.44,-395.87"/>
<polygon fill="red" stroke="red" points="1329.76,-392.62 1319.22,-391.57 1326.8,-398.97 1329.76,-392.62"/>
</g>
<!-- node59 -->
<g id="node31" class="node">
<title>node59</title>
<ellipse fill="cornflowerblue" stroke="black" cx="1648.29" cy="-378" rx="157.87" ry="18"/>
<text text-anchor="middle" x="1648.29" y="-374.3" font-family="Times New Roman,serif" font-size="14.00">the wither&#39;s girlfriend (maybe in the past)</text>
</g>
<!-- node0&#45;&gt;node59 -->
<g id="edge30" class="edge">
<title>node0&#45;&gt;node59</title>
<path fill="none" stroke="green" d="M1467.14,-440.56C1497.66,-430.19 1550.37,-412.28 1591.09,-398.44"/>
<polygon fill="green" stroke="green" points="1592.29,-401.73 1600.63,-395.2 1590.04,-395.1 1592.29,-401.73"/>
</g>
<!-- node2 -->
<g id="node3" class="node">
<title>node2</title>
<ellipse fill="cornflowerblue" stroke="black" cx="715.29" cy="-306" rx="43.59" ry="18"/>
<text text-anchor="middle" x="715.29" y="-302.3" font-family="Times New Roman,serif" font-size="14.00">a witcher</text>
</g>
<!-- node1&#45;&gt;node2 -->
<g id="edge2" class="edge">
<title>node1&#45;&gt;node2</title>
<path fill="none" stroke="red" d="M1253.09,-372.24C1151.63,-359.93 880.44,-327.04 766.66,-313.23"/>
<polygon fill="red" stroke="red" points="766.83,-309.73 756.48,-312 765.98,-316.68 766.83,-309.73"/>
</g>
<!-- node32 -->
<g id="node18" class="node">
<title>node32</title>
<ellipse fill="cornflowerblue" stroke="black" cx="1292.29" cy="-306" rx="161.37" ry="18"/>
<text text-anchor="middle" x="1292.29" y="-302.3" font-family="Times New Roman,serif" font-size="14.00">Nilfgaardian politician (maybe in the past)</text>
</g>
<!-- node1&#45;&gt;node32 -->
<g id="edge17" class="edge">
<title>node1&#45;&gt;node32</title>
<path fill="none" stroke="green" d="M1292.29,-359.7C1292.29,-351.98 1292.29,-342.71 1292.29,-334.11"/>
<polygon fill="green" stroke="green" points="1295.79,-334.1 1292.29,-324.1 1288.79,-334.1 1295.79,-334.1"/>
</g>
<!-- node3 -->
<g id="node4" class="node">
<title>node3</title>
<ellipse fill="cornflowerblue" stroke="black" cx="420.29" cy="-234" rx="38.19" ry="18"/>
<text text-anchor="middle" x="420.29" y="-230.3" font-family="Times New Roman,serif" font-size="14.00">a dwarf</text>
</g>
<!-- node2&#45;&gt;node3 -->
<g id="edge3" class="edge">
<title>node2&#45;&gt;node3</title>
<path fill="none" stroke="red" d="M678.53,-296.28C624.04,-283.35 522.02,-259.14 463.85,-245.34"/>
<polygon fill="red" stroke="red" points="464.41,-241.87 453.87,-242.97 462.79,-248.68 464.41,-241.87"/>
</g>
<!-- node17 -->
<g id="node11" class="node">
<title>node17</title>
<ellipse fill="cornflowerblue" stroke="black" cx="715.29" cy="-234" rx="65.79" ry="18"/>
<text text-anchor="middle" x="715.29" y="-230.3" font-family="Times New Roman,serif" font-size="14.00">The Kingslayer</text>
</g>
<!-- node2&#45;&gt;node17 -->
<g id="edge10" class="edge">
<title>node2&#45;&gt;node17</title>
<path fill="none" stroke="green" d="M715.29,-287.7C715.29,-279.98 715.29,-270.71 715.29,-262.11"/>
<polygon fill="green" stroke="green" points="718.79,-262.1 715.29,-252.1 711.79,-262.1 718.79,-262.1"/>
</g>
<!-- node4 -->
<g id="node5" class="node">
<title>node4</title>
<ellipse fill="cornflowerblue" stroke="black" cx="266.29" cy="-162" rx="36.29" ry="18"/>
<text text-anchor="middle" x="266.29" y="-158.3" font-family="Times New Roman,serif" font-size="14.00">a druid</text>
</g>
<!-- node3&#45;&gt;node4 -->
<g id="edge4" class="edge">
<title>node3&#45;&gt;node4</title>
<path fill="none" stroke="red" d="M393.82,-220.97C368.36,-209.39 329.7,-191.82 301.62,-179.06"/>
<polygon fill="red" stroke="red" points="302.72,-175.71 292.17,-174.76 299.82,-182.08 302.72,-175.71"/>
</g>
<!-- node14 -->
<g id="node10" class="node">
<title>node14</title>
<ellipse fill="springGreen" stroke="black" cx="420.29" cy="-162" rx="61.99" ry="18"/>
<text text-anchor="middle" x="420.29" y="-158.3" font-family="Times New Roman,serif" font-size="14.00">Zoltan Chivay</text>
</g>
<!-- node3&#45;&gt;node14 -->
<g id="edge9" class="edge">
<title>node3&#45;&gt;node14</title>
<path fill="none" stroke="green" d="M420.29,-215.7C420.29,-207.98 420.29,-198.71 420.29,-190.11"/>
<polygon fill="green" stroke="green" points="423.79,-190.1 420.29,-180.1 416.79,-190.1 423.79,-190.1"/>
</g>
<!-- node5 -->
<g id="node6" class="node">
<title>node5</title>
<ellipse fill="cornflowerblue" stroke="black" cx="123.29" cy="-90" rx="72.59" ry="18"/>
<text text-anchor="middle" x="123.29" y="-86.3" font-family="Times New Roman,serif" font-size="14.00">able to transform</text>
</g>
<!-- node4&#45;&gt;node5 -->
<g id="edge5" class="edge">
<title>node4&#45;&gt;node5</title>
<path fill="none" stroke="red" d="M241.39,-148.81C220.03,-138.35 188.85,-123.09 163.89,-110.87"/>
<polygon fill="red" stroke="red" points="165.18,-107.61 154.66,-106.35 162.1,-113.89 165.18,-107.61"/>
</g>
<!-- node11 -->
<g id="node9" class="node">
<title>node11</title>
<ellipse fill="springGreen" stroke="black" cx="266.29" cy="-90" rx="51.99" ry="18"/>
<text text-anchor="middle" x="266.29" y="-86.3" font-family="Times New Roman,serif" font-size="14.00">Mousesack</text>
</g>
<!-- node4&#45;&gt;node11 -->
<g id="edge8" class="edge">
<title>node4&#45;&gt;node11</title>
<path fill="none" stroke="green" d="M266.29,-143.7C266.29,-135.98 266.29,-126.71 266.29,-118.11"/>
<polygon fill="green" stroke="green" points="269.79,-118.1 266.29,-108.1 262.79,-118.1 269.79,-118.1"/>
</g>
<!-- node6 -->
<g id="node7" class="node">
<title>node6</title>
<ellipse fill="springGreen" stroke="black" cx="66.29" cy="-18" rx="66.09" ry="18"/>
<text text-anchor="middle" x="66.29" y="-14.3" font-family="Times New Roman,serif" font-size="14.00">Johnny (Ivasik)</text>
</g>
<!-- node5&#45;&gt;node6 -->
<g id="edge6" class="edge">
<title>node5&#45;&gt;node6</title>
<path fill="none" stroke="red" d="M109.5,-72.05C102.56,-63.54 94.04,-53.07 86.39,-43.68"/>
<polygon fill="red" stroke="red" points="88.99,-41.33 79.97,-35.79 83.57,-45.75 88.99,-41.33"/>
</g>
<!-- node8 -->
<g id="node8" class="node">
<title>node8</title>
<ellipse fill="springGreen" stroke="black" cx="181.29" cy="-18" rx="30.59" ry="18"/>
<text text-anchor="middle" x="181.29" y="-14.3" font-family="Times New Roman,serif" font-size="14.00">Dudu</text>
</g>
<!-- node5&#45;&gt;node8 -->
<g id="edge7" class="edge">
<title>node5&#45;&gt;node8</title>
<path fill="none" stroke="green" d="M137.33,-72.05C144.67,-63.2 153.76,-52.23 161.77,-42.57"/>
<polygon fill="green" stroke="green" points="164.49,-44.76 168.18,-34.83 159.1,-40.3 164.49,-44.76"/>
</g>
<!-- node18 -->
<g id="node12" class="node">
<title>node18</title>
<ellipse fill="cornflowerblue" stroke="black" cx="641.29" cy="-162" rx="64.99" ry="18"/>
<text text-anchor="middle" x="641.29" y="-158.3" font-family="Times New Roman,serif" font-size="14.00">alcoholic&#39;s son</text>
</g>
<!-- node17&#45;&gt;node18 -->
<g id="edge11" class="edge">
<title>node17&#45;&gt;node18</title>
<path fill="none" stroke="red" d="M697.76,-216.41C688.26,-207.43 676.38,-196.19 665.97,-186.34"/>
<polygon fill="red" stroke="red" points="668.38,-183.8 658.71,-179.47 663.56,-188.88 668.38,-183.8"/>
</g>
<!-- node28 -->
<g id="node17" class="node">
<title>node28</title>
<ellipse fill="springGreen" stroke="black" cx="788.29" cy="-162" rx="63.89" ry="18"/>
<text text-anchor="middle" x="788.29" y="-158.3" font-family="Times New Roman,serif" font-size="14.00">Letho of Gulet</text>
</g>
<!-- node17&#45;&gt;node28 -->
<g id="edge16" class="edge">
<title>node17&#45;&gt;node28</title>
<path fill="none" stroke="green" d="M732.59,-216.41C741.87,-207.52 753.45,-196.41 763.65,-186.63"/>
<polygon fill="green" stroke="green" points="766.32,-188.92 771.12,-179.47 761.48,-183.86 766.32,-188.92"/>
</g>
<!-- node19 -->
<g id="node13" class="node">
<title>node19</title>
<ellipse fill="cornflowerblue" stroke="black" cx="478.29" cy="-90" rx="142.17" ry="18"/>
<text text-anchor="middle" x="478.29" y="-86.3" font-family="Times New Roman,serif" font-size="14.00">the oldest wither in the Caer Morhen</text>
</g>
<!-- node18&#45;&gt;node19 -->
<g id="edge12" class="edge">
<title>node18&#45;&gt;node19</title>
<path fill="none" stroke="red" d="M607.52,-146.5C583.93,-136.37 552.11,-122.7 525.95,-111.47"/>
<polygon fill="red" stroke="red" points="527.16,-108.18 516.59,-107.45 524.4,-114.61 527.16,-108.18"/>
</g>
<!-- node25 -->
<g id="node16" class="node">
<title>node25</title>
<ellipse fill="springGreen" stroke="black" cx="679.29" cy="-90" rx="40.89" ry="18"/>
<text text-anchor="middle" x="679.29" y="-86.3" font-family="Times New Roman,serif" font-size="14.00">Lambert</text>
</g>
<!-- node18&#45;&gt;node25 -->
<g id="edge15" class="edge">
<title>node18&#45;&gt;node25</title>
<path fill="none" stroke="green" d="M650.49,-144.05C654.93,-135.89 660.34,-125.91 665.28,-116.82"/>
<polygon fill="green" stroke="green" points="668.49,-118.25 670.18,-107.79 662.33,-114.91 668.49,-118.25"/>
</g>
<!-- node20 -->
<g id="node14" class="node">
<title>node20</title>
<ellipse fill="springGreen" stroke="black" cx="432.29" cy="-18" rx="32.49" ry="18"/>
<text text-anchor="middle" x="432.29" y="-14.3" font-family="Times New Roman,serif" font-size="14.00">Geralt</text>
</g>
<!-- node19&#45;&gt;node20 -->
<g id="edge13" class="edge">
<title>node19&#45;&gt;node20</title>
<path fill="none" stroke="red" d="M467.16,-72.05C461.6,-63.59 454.76,-53.19 448.62,-43.84"/>
<polygon fill="red" stroke="red" points="451.43,-41.74 443.01,-35.31 445.58,-45.59 451.43,-41.74"/>
</g>
<!-- node22 -->
<g id="node15" class="node">
<title>node22</title>
<ellipse fill="springGreen" stroke="black" cx="523.29" cy="-18" rx="40.09" ry="18"/>
<text text-anchor="middle" x="523.29" y="-14.3" font-family="Times New Roman,serif" font-size="14.00">Vesemir</text>
</g>
<!-- node19&#45;&gt;node22 -->
<g id="edge14" class="edge">
<title>node19&#45;&gt;node22</title>
<path fill="none" stroke="green" d="M489.42,-71.7C494.73,-63.44 501.18,-53.39 507.03,-44.3"/>
<polygon fill="green" stroke="green" points="510.14,-45.93 512.61,-35.62 504.26,-42.14 510.14,-45.93"/>
</g>
<!-- node33 -->
<g id="node19" class="node">
<title>node33</title>
<ellipse fill="cornflowerblue" stroke="black" cx="1223.29" cy="-234" rx="27" ry="18"/>
<text text-anchor="middle" x="1223.29" y="-230.3" font-family="Times New Roman,serif" font-size="14.00">spy</text>
</g>
<!-- node32&#45;&gt;node33 -->
<g id="edge18" class="edge">
<title>node32&#45;&gt;node33</title>
<path fill="none" stroke="red" d="M1275.59,-288.05C1266.31,-278.64 1254.66,-266.82 1244.72,-256.74"/>
<polygon fill="red" stroke="red" points="1247.03,-254.09 1237.51,-249.42 1242.04,-259 1247.03,-254.09"/>
</g>
<!-- node47 -->
<g id="node26" class="node">
<title>node47</title>
<ellipse fill="cornflowerblue" stroke="black" cx="1428.29" cy="-234" rx="158.67" ry="18"/>
<text text-anchor="middle" x="1428.29" y="-230.3" font-family="Times New Roman,serif" font-size="14.00">emperor of Nilfgaard (maybe in the past)</text>
</g>
<!-- node32&#45;&gt;node47 -->
<g id="edge25" class="edge">
<title>node32&#45;&gt;node47</title>
<path fill="none" stroke="green" d="M1324.87,-288.23C1343.46,-278.67 1366.94,-266.58 1386.84,-256.34"/>
<polygon fill="green" stroke="green" points="1388.69,-259.32 1395.98,-251.63 1385.49,-253.09 1388.69,-259.32"/>
</g>
<!-- node34 -->
<g id="node20" class="node">
<title>node34</title>
<ellipse fill="cornflowerblue" stroke="black" cx="1031.29" cy="-162" rx="104.78" ry="18"/>
<text text-anchor="middle" x="1031.29" y="-158.3" font-family="Times New Roman,serif" font-size="14.00">a member of the Big Four</text>
</g>
<!-- node33&#45;&gt;node34 -->
<g id="edge19" class="edge">
<title>node33&#45;&gt;node34</title>
<path fill="none" stroke="red" d="M1200.13,-224.56C1171.36,-214.06 1121.39,-195.85 1083.26,-181.94"/>
<polygon fill="red" stroke="red" points="1084.43,-178.65 1073.84,-178.51 1082.03,-185.22 1084.43,-178.65"/>
</g>
<!-- node40 -->
<g id="node23" class="node">
<title>node40</title>
<ellipse fill="cornflowerblue" stroke="black" cx="1223.29" cy="-162" rx="63.09" ry="18"/>
<text text-anchor="middle" x="1223.29" y="-158.3" font-family="Times New Roman,serif" font-size="14.00">a redanian spy</text>
</g>
<!-- node33&#45;&gt;node40 -->
<g id="edge22" class="edge">
<title>node33&#45;&gt;node40</title>
<path fill="none" stroke="green" d="M1223.29,-215.7C1223.29,-207.98 1223.29,-198.71 1223.29,-190.11"/>
<polygon fill="green" stroke="green" points="1226.79,-190.1 1223.29,-180.1 1219.79,-190.1 1226.79,-190.1"/>
</g>
<!-- node35 -->
<g id="node21" class="node">
<title>node35</title>
<ellipse fill="springGreen" stroke="black" cx="802.29" cy="-90" rx="63.89" ry="18"/>
<text text-anchor="middle" x="802.29" y="-86.3" font-family="Times New Roman,serif" font-size="14.00">Vernon Roche</text>
</g>
<!-- node34&#45;&gt;node35 -->
<g id="edge20" class="edge">
<title>node34&#45;&gt;node35</title>
<path fill="none" stroke="red" d="M982.45,-146.07C944.59,-134.5 892.26,-118.5 853.75,-106.73"/>
<polygon fill="red" stroke="red" points="854.36,-103.26 843.78,-103.68 852.32,-109.95 854.36,-103.26"/>
</g>
<!-- node37 -->
<g id="node22" class="node">
<title>node37</title>
<ellipse fill="springGreen" stroke="black" cx="1031.29" cy="-90" rx="147.57" ry="18"/>
<text text-anchor="middle" x="1031.29" y="-86.3" font-family="Times New Roman,serif" font-size="14.00">Francis Bedlam (the King of Beggars)</text>
</g>
<!-- node34&#45;&gt;node37 -->
<g id="edge21" class="edge">
<title>node34&#45;&gt;node37</title>
<path fill="none" stroke="green" d="M1031.29,-143.7C1031.29,-135.98 1031.29,-126.71 1031.29,-118.11"/>
<polygon fill="green" stroke="green" points="1034.79,-118.1 1031.29,-108.1 1027.79,-118.1 1034.79,-118.1"/>
</g>
<!-- node41 -->
<g id="node24" class="node">
<title>node41</title>
<ellipse fill="springGreen" stroke="black" cx="1230.29" cy="-90" rx="33.6" ry="18"/>
<text text-anchor="middle" x="1230.29" y="-86.3" font-family="Times New Roman,serif" font-size="14.00">Thaler</text>
</g>
<!-- node40&#45;&gt;node41 -->
<g id="edge23" class="edge">
<title>node40&#45;&gt;node41</title>
<path fill="none" stroke="red" d="M1225.02,-143.7C1225.8,-135.98 1226.72,-126.71 1227.58,-118.11"/>
<polygon fill="red" stroke="red" points="1231.07,-118.4 1228.58,-108.1 1224.11,-117.71 1231.07,-118.4"/>
</g>
<!-- node43 -->
<g id="node25" class="node">
<title>node43</title>
<ellipse fill="springGreen" stroke="black" cx="1361.29" cy="-90" rx="79.09" ry="18"/>
<text text-anchor="middle" x="1361.29" y="-86.3" font-family="Times New Roman,serif" font-size="14.00">Sigismund Dijkstra</text>
</g>
<!-- node40&#45;&gt;node43 -->
<g id="edge24" class="edge">
<title>node40&#45;&gt;node43</title>
<path fill="none" stroke="green" d="M1252.9,-145.98C1272.86,-135.86 1299.43,-122.38 1321.27,-111.3"/>
<polygon fill="green" stroke="green" points="1322.97,-114.37 1330.3,-106.72 1319.8,-108.12 1322.97,-114.37"/>
</g>
<!-- node48 -->
<g id="node27" class="node">
<title>node48</title>
<ellipse fill="springGreen" stroke="black" cx="1429.29" cy="-162" rx="125.38" ry="18"/>
<text text-anchor="middle" x="1429.29" y="-158.3" font-family="Times New Roman,serif" font-size="14.00">Phillip Strenger (Bloody Baron)</text>
</g>
<!-- node47&#45;&gt;node48 -->
<g id="edge26" class="edge">
<title>node47&#45;&gt;node48</title>
<path fill="none" stroke="red" d="M1428.54,-215.7C1428.65,-207.98 1428.78,-198.71 1428.91,-190.11"/>
<polygon fill="red" stroke="red" points="1432.41,-190.15 1429.05,-180.1 1425.41,-190.05 1432.41,-190.15"/>
</g>
<!-- node50 -->
<g id="node28" class="node">
<title>node50</title>
<ellipse fill="cornflowerblue" stroke="black" cx="1700.29" cy="-162" rx="127.28" ry="18"/>
<text text-anchor="middle" x="1700.29" y="-158.3" font-family="Times New Roman,serif" font-size="14.00">commander of the Alba division</text>
</g>
<!-- node47&#45;&gt;node50 -->
<g id="edge27" class="edge">
<title>node47&#45;&gt;node50</title>
<path fill="none" stroke="green" d="M1489.34,-217.29C1531.71,-206.39 1588.2,-191.85 1632.06,-180.56"/>
<polygon fill="green" stroke="green" points="1632.98,-183.94 1641.79,-178.06 1631.23,-177.16 1632.98,-183.94"/>
</g>
<!-- node51 -->
<g id="node29" class="node">
<title>node51</title>
<ellipse fill="springGreen" stroke="black" cx="1617.29" cy="-90" rx="75.29" ry="18"/>
<text text-anchor="middle" x="1617.29" y="-86.3" font-family="Times New Roman,serif" font-size="14.00">Emhyr var Emreis</text>
</g>
<!-- node50&#45;&gt;node51 -->
<g id="edge28" class="edge">
<title>node50&#45;&gt;node51</title>
<path fill="none" stroke="red" d="M1680.2,-144.05C1669.52,-135.05 1656.24,-123.84 1644.63,-114.05"/>
<polygon fill="red" stroke="red" points="1646.82,-111.32 1636.91,-107.55 1642.3,-116.67 1646.82,-111.32"/>
</g>
<!-- node53 -->
<g id="node30" class="node">
<title>node53</title>
<ellipse fill="springGreen" stroke="black" cx="1784.29" cy="-90" rx="73.39" ry="18"/>
<text text-anchor="middle" x="1784.29" y="-86.3" font-family="Times New Roman,serif" font-size="14.00">Morvran Voorhis</text>
</g>
<!-- node50&#45;&gt;node53 -->
<g id="edge29" class="edge">
<title>node50&#45;&gt;node53</title>
<path fill="none" stroke="green" d="M1720.63,-144.05C1731.44,-135.05 1744.88,-123.84 1756.63,-114.05"/>
<polygon fill="green" stroke="green" points="1759,-116.64 1764.44,-107.55 1754.51,-111.26 1759,-116.64"/>
</g>
<!-- node60 -->
<g id="node32" class="node">
<title>node60</title>
<ellipse fill="cornflowerblue" stroke="black" cx="1648.29" cy="-306" rx="122.38" ry="18"/>
<text text-anchor="middle" x="1648.29" y="-302.3" font-family="Times New Roman,serif" font-size="14.00">the enchantress from the lodge</text>
</g>
<!-- node59&#45;&gt;node60 -->
<g id="edge31" class="edge">
<title>node59&#45;&gt;node60</title>
<path fill="none" stroke="red" d="M1648.29,-359.7C1648.29,-351.98 1648.29,-342.71 1648.29,-334.11"/>
<polygon fill="red" stroke="red" points="1651.79,-334.1 1648.29,-324.1 1644.79,-334.1 1651.79,-334.1"/>
</g>
<!-- node66 -->
<g id="node35" class="node">
<title>node66</title>
<ellipse fill="cornflowerblue" stroke="black" cx="1848.29" cy="-306" rx="47.39" ry="18"/>
<text text-anchor="middle" x="1848.29" y="-302.3" font-family="Times New Roman,serif" font-size="14.00">red&#45;haired</text>
</g>
<!-- node59&#45;&gt;node66 -->
<g id="edge34" class="edge">
<title>node59&#45;&gt;node66</title>
<path fill="none" stroke="green" d="M1694.68,-360.76C1727.94,-349.13 1772.42,-333.56 1804.96,-322.17"/>
<polygon fill="green" stroke="green" points="1806.37,-325.38 1814.65,-318.78 1804.05,-318.78 1806.37,-325.38"/>
</g>
<!-- node61 -->
<g id="node33" class="node">
<title>node61</title>
<ellipse fill="springGreen" stroke="black" cx="1636.29" cy="-234" rx="31.7" ry="18"/>
<text text-anchor="middle" x="1636.29" y="-230.3" font-family="Times New Roman,serif" font-size="14.00">Cirilla</text>
</g>
<!-- node60&#45;&gt;node61 -->
<g id="edge32" class="edge">
<title>node60&#45;&gt;node61</title>
<path fill="none" stroke="red" d="M1645.33,-287.7C1644.01,-279.98 1642.42,-270.71 1640.94,-262.11"/>
<polygon fill="red" stroke="red" points="1644.37,-261.37 1639.23,-252.1 1637.47,-262.55 1644.37,-261.37"/>
</g>
<!-- node63 -->
<g id="node34" class="node">
<title>node63</title>
<ellipse fill="springGreen" stroke="black" cx="1736.29" cy="-234" rx="50.09" ry="18"/>
<text text-anchor="middle" x="1736.29" y="-230.3" font-family="Times New Roman,serif" font-size="14.00">Keira Metz</text>
</g>
<!-- node60&#45;&gt;node63 -->
<g id="edge33" class="edge">
<title>node60&#45;&gt;node63</title>
<path fill="none" stroke="green" d="M1669.6,-288.05C1681.36,-278.69 1696.11,-266.96 1708.75,-256.91"/>
<polygon fill="green" stroke="green" points="1711.05,-259.56 1716.69,-250.59 1706.69,-254.08 1711.05,-259.56"/>
</g>
<!-- node67 -->
<g id="node36" class="node">
<title>node67</title>
<ellipse fill="springGreen" stroke="black" cx="1848.29" cy="-234" rx="43.59" ry="18"/>
<text text-anchor="middle" x="1848.29" y="-230.3" font-family="Times New Roman,serif" font-size="14.00">Yennefer</text>
</g>
<!-- node66&#45;&gt;node67 -->
<g id="edge35" class="edge">
<title>node66&#45;&gt;node67</title>
<path fill="none" stroke="red" d="M1848.29,-287.7C1848.29,-279.98 1848.29,-270.71 1848.29,-262.11"/>
<polygon fill="red" stroke="red" points="1851.79,-262.1 1848.29,-252.1 1844.79,-262.1 1851.79,-262.1"/>
</g>
<!-- node69 -->
<g id="node37" class="node">
<title>node69</title>
<ellipse fill="springGreen" stroke="black" cx="1939.29" cy="-234" rx="29.5" ry="18"/>
<text text-anchor="middle" x="1939.29" y="-230.3" font-family="Times New Roman,serif" font-size="14.00">Triss</text>
</g>
<!-- node66&#45;&gt;node69 -->
<g id="edge36" class="edge">
<title>node66&#45;&gt;node69</title>
<path fill="none" stroke="green" d="M1868.49,-289.46C1881.8,-279.23 1899.34,-265.74 1913.63,-254.74"/>
<polygon fill="green" stroke="green" points="1915.82,-257.47 1921.61,-248.6 1911.55,-251.92 1915.82,-257.47"/>
</g>
</g>
</svg>
