<?xml version="1.0" encoding="UTF-8" standalone="no"?>
<!DOCTYPE svg PUBLIC "-//W3C//DTD SVG 1.1//EN"
 "http://www.w3.org/Graphics/SVG/1.1/DTD/svg11.dtd">
<!-- Generated by graphviz version 5.0.1 (20220820.1526)
 -->
<!-- Pages: 1 -->
<svg width="793pt" height="447pt"
 viewBox="0.00 0.00 792.60 446.60" xmlns="http://www.w3.org/2000/svg" xmlns:xlink="http://www.w3.org/1999/xlink">
<g id="graph0" class="graph" transform="scale(1 1) rotate(0) translate(4 442.6)">
<polygon fill="white" stroke="none" points="-4,4 -4,-442.6 788.6,-442.6 788.6,4 -4,4"/>
<!-- node0 -->
<g id="node1" class="node">
<title>node0</title>
<ellipse fill="none" stroke="black" cx="403.6" cy="-420.6" rx="44.39" ry="18"/>
<text text-anchor="middle" x="403.6" y="-416.9" font-family="Times New Roman,serif" font-size="14.00">an animal</text>
</g>
<!-- node1 -->
<g id="node2" class="node">
<title>node1</title>
<ellipse fill="none" stroke="black" cx="332.6" cy="-333.6" rx="60.39" ry="18"/>
<text text-anchor="middle" x="332.6" y="-329.9" font-family="Times New Roman,serif" font-size="14.00">matan teacher</text>
</g>
<!-- node0&#45;&gt;node1 -->
<g id="edge1" class="edge">
<title>node0&#45;&gt;node1</title>
<path fill="none" stroke="black" d="M389.91,-403.21C379.46,-390.71 364.91,-373.29 353.08,-359.13"/>
<polygon fill="black" stroke="black" points="355.58,-356.66 346.48,-351.23 350.21,-361.15 355.58,-356.66"/>
<text text-anchor="middle" x="381.6" y="-373.4" font-family="Times New Roman,serif" font-size="14.00">No</text>
</g>
<!-- node12 -->
<g id="node13" class="node">
<title>node12</title>
<ellipse fill="none" stroke="black" cx="539.6" cy="-333.6" rx="44.69" ry="18"/>
<text text-anchor="middle" x="539.6" y="-329.9" font-family="Times New Roman,serif" font-size="14.00">crokodile</text>
</g>
<!-- node0&#45;&gt;node12 -->
<g id="edge12" class="edge">
<title>node0&#45;&gt;node12</title>
<path fill="none" stroke="black" d="M426.67,-405.18C448.94,-391.26 482.85,-370.06 507.7,-354.53"/>
<polygon fill="black" stroke="black" points="509.79,-357.36 516.41,-349.09 506.08,-351.42 509.79,-357.36"/>
<text text-anchor="middle" x="491.6" y="-373.4" font-family="Times New Roman,serif" font-size="14.00">Yes</text>
</g>
<!-- node2 -->
<g id="node3" class="node">
<title>node2</title>
<ellipse fill="none" stroke="black" cx="54.6" cy="-246.6" rx="54.69" ry="18"/>
<text text-anchor="middle" x="54.6" y="-242.9" font-family="Times New Roman,serif" font-size="14.00">DASHKOV</text>
</g>
<!-- node1&#45;&gt;node2 -->
<g id="edge2" class="edge">
<title>node1&#45;&gt;node2</title>
<path fill="none" stroke="black" d="M291.87,-320.15C241.61,-304.78 156.26,-278.68 102.78,-262.33"/>
<polygon fill="black" stroke="black" points="103.77,-258.98 93.18,-259.4 101.72,-265.67 103.77,-258.98"/>
<text text-anchor="middle" x="219.6" y="-286.4" font-family="Times New Roman,serif" font-size="14.00">No</text>
</g>
<!-- node5 -->
<g id="node6" class="node">
<title>node5</title>
<ellipse fill="none" stroke="black" cx="332.6" cy="-246.6" rx="60.39" ry="18"/>
<text text-anchor="middle" x="332.6" y="-242.9" font-family="Times New Roman,serif" font-size="14.00">FPMI teacher</text>
</g>
<!-- node1&#45;&gt;node5 -->
<g id="edge5" class="edge">
<title>node1&#45;&gt;node5</title>
<path fill="none" stroke="black" d="M332.6,-315.4C332.6,-303.76 332.6,-288.15 332.6,-274.84"/>
<polygon fill="black" stroke="black" points="336.1,-274.78 332.6,-264.78 329.1,-274.78 336.1,-274.78"/>
<text text-anchor="middle" x="343.6" y="-286.4" font-family="Times New Roman,serif" font-size="14.00">Yes</text>
</g>
<!-- node3 -->
<g id="node4" class="node">
<title>node3</title>
<ellipse fill="black" stroke="black" cx="13.6" cy="-159.6" rx="1.8" ry="1.8"/>
</g>
<!-- node2&#45;&gt;node3 -->
<g id="edge3" class="edge">
<title>node2&#45;&gt;node3</title>
<path fill="none" stroke="black" d="M43.16,-228.9C39.53,-223.23 35.67,-216.77 32.6,-210.6 26.15,-197.65 20.51,-181.95 17.09,-171.64"/>
<polygon fill="black" stroke="black" points="20.35,-170.34 13.98,-161.88 13.68,-172.47 20.35,-170.34"/>
<text text-anchor="middle" x="41.6" y="-199.4" font-family="Times New Roman,serif" font-size="14.00">No</text>
</g>
<!-- node4 -->
<g id="node5" class="node">
<title>node4</title>
<ellipse fill="black" stroke="black" cx="54.6" cy="-159.6" rx="1.8" ry="1.8"/>
</g>
<!-- node2&#45;&gt;node4 -->
<g id="edge4" class="edge">
<title>node2&#45;&gt;node4</title>
<path fill="none" stroke="black" d="M54.6,-228.4C54.6,-211.52 54.6,-186.26 54.6,-171.82"/>
<polygon fill="black" stroke="black" points="58.1,-171.68 54.6,-161.68 51.1,-171.68 58.1,-171.68"/>
<text text-anchor="middle" x="65.6" y="-199.4" font-family="Times New Roman,serif" font-size="14.00">Yes</text>
</g>
<!-- node6 -->
<g id="node7" class="node">
<title>node6</title>
<ellipse fill="none" stroke="black" cx="168.6" cy="-159.6" rx="94.48" ry="18"/>
<text text-anchor="middle" x="168.6" y="-155.9" font-family="Times New Roman,serif" font-size="14.00">NOT REDKOZUBOV</text>
</g>
<!-- node5&#45;&gt;node6 -->
<g id="edge6" class="edge">
<title>node5&#45;&gt;node6</title>
<path fill="none" stroke="black" d="M303.65,-230.6C277.35,-216.97 238.28,-196.72 208.92,-181.5"/>
<polygon fill="black" stroke="black" points="210.25,-178.25 199.76,-176.75 207.03,-184.46 210.25,-178.25"/>
<text text-anchor="middle" x="269.6" y="-199.4" font-family="Times New Roman,serif" font-size="14.00">No</text>
</g>
<!-- node9 -->
<g id="node10" class="node">
<title>node9</title>
<ellipse fill="none" stroke="black" cx="353.6" cy="-159.6" rx="72.59" ry="18"/>
<text text-anchor="middle" x="353.6" y="-155.9" font-family="Times New Roman,serif" font-size="14.00">REDKOZUBOV</text>
</g>
<!-- node5&#45;&gt;node9 -->
<g id="edge9" class="edge">
<title>node5&#45;&gt;node9</title>
<path fill="none" stroke="black" d="M336.84,-228.4C339.72,-216.76 343.58,-201.15 346.87,-187.84"/>
<polygon fill="black" stroke="black" points="350.35,-188.32 349.35,-177.78 343.56,-186.64 350.35,-188.32"/>
<text text-anchor="middle" x="355.6" y="-199.4" font-family="Times New Roman,serif" font-size="14.00">Yes</text>
</g>
<!-- node7 -->
<g id="node8" class="node">
<title>node7</title>
<ellipse fill="black" stroke="black" cx="147.6" cy="-72.6" rx="1.8" ry="1.8"/>
</g>
<!-- node6&#45;&gt;node7 -->
<g id="edge7" class="edge">
<title>node6&#45;&gt;node7</title>
<path fill="none" stroke="black" d="M161.43,-141.37C159.31,-135.78 157.14,-129.49 155.6,-123.6 152.15,-110.51 149.96,-95.07 148.75,-84.85"/>
<polygon fill="black" stroke="black" points="152.23,-84.44 147.7,-74.86 145.27,-85.17 152.23,-84.44"/>
<text text-anchor="middle" x="164.6" y="-112.4" font-family="Times New Roman,serif" font-size="14.00">No</text>
</g>
<!-- node8 -->
<g id="node9" class="node">
<title>node8</title>
<ellipse fill="black" stroke="black" cx="188.6" cy="-72.6" rx="1.8" ry="1.8"/>
</g>
<!-- node6&#45;&gt;node8 -->
<g id="edge8" class="edge">
<title>node6&#45;&gt;node8</title>
<path fill="none" stroke="black" d="M172.64,-141.4C176.61,-124.52 182.56,-99.26 185.96,-84.82"/>
<polygon fill="black" stroke="black" points="189.46,-85.22 188.34,-74.68 182.64,-83.61 189.46,-85.22"/>
<text text-anchor="middle" x="191.6" y="-112.4" font-family="Times New Roman,serif" font-size="14.00">Yes</text>
</g>
<!-- node10 -->
<g id="node11" class="node">
<title>node10</title>
<ellipse fill="black" stroke="black" cx="312.6" cy="-72.6" rx="1.8" ry="1.8"/>
</g>
<!-- node9&#45;&gt;node10 -->
<g id="edge10" class="edge">
<title>node9&#45;&gt;node10</title>
<path fill="none" stroke="black" d="M341.93,-141.55C338.37,-135.96 334.6,-129.64 331.6,-123.6 325.15,-110.65 319.51,-94.95 316.09,-84.64"/>
<polygon fill="black" stroke="black" points="319.35,-83.34 312.98,-74.88 312.68,-85.47 319.35,-83.34"/>
<text text-anchor="middle" x="340.6" y="-112.4" font-family="Times New Roman,serif" font-size="14.00">No</text>
</g>
<!-- node11 -->
<g id="node12" class="node">
<title>node11</title>
<ellipse fill="black" stroke="black" cx="353.6" cy="-72.6" rx="1.8" ry="1.8"/>
</g>
<!-- node9&#45;&gt;node11 -->
<g id="edge11" class="edge">
<title>node9&#45;&gt;node11</title>
<path fill="none" stroke="black" d="M353.6,-141.4C353.6,-124.52 353.6,-99.26 353.6,-84.82"/>
<polygon fill="black" stroke="black" points="357.1,-84.68 353.6,-74.68 350.1,-84.68 357.1,-84.68"/>
<text text-anchor="middle" x="364.6" y="-112.4" font-family="Times New Roman,serif" font-size="14.00">Yes</text>
</g>
<!-- node13 -->
<g id="node14" class="node">
<title>node13</title>
<ellipse fill="none" stroke="black" cx="539.6" cy="-246.6" rx="64.99" ry="18"/>
<text text-anchor="middle" x="539.6" y="-242.9" font-family="Times New Roman,serif" font-size="14.00">GENA&#39;s friend</text>
</g>
<!-- node12&#45;&gt;node13 -->
<g id="edge13" class="edge">
<title>node12&#45;&gt;node13</title>
<path fill="none" stroke="black" d="M539.6,-315.4C539.6,-303.76 539.6,-288.15 539.6,-274.84"/>
<polygon fill="black" stroke="black" points="543.1,-274.78 539.6,-264.78 536.1,-274.78 543.1,-274.78"/>
<text text-anchor="middle" x="548.6" y="-286.4" font-family="Times New Roman,serif" font-size="14.00">No</text>
</g>
<!-- node24 -->
<g id="node25" class="node">
<title>node24</title>
<ellipse fill="none" stroke="black" cx="736.6" cy="-246.6" rx="36" ry="18"/>
<text text-anchor="middle" x="736.6" y="-242.9" font-family="Times New Roman,serif" font-size="14.00">GENA</text>
</g>
<!-- node12&#45;&gt;node24 -->
<g id="edge24" class="edge">
<title>node12&#45;&gt;node24</title>
<path fill="none" stroke="black" d="M569.09,-319.87C604.26,-304.7 663.04,-279.34 700.79,-263.05"/>
<polygon fill="black" stroke="black" points="702.58,-266.09 710.37,-258.92 699.8,-259.66 702.58,-266.09"/>
<text text-anchor="middle" x="661.6" y="-286.4" font-family="Times New Roman,serif" font-size="14.00">Yes</text>
</g>
<!-- node14 -->
<g id="node15" class="node">
<title>node14</title>
<ellipse fill="none" stroke="black" cx="493.6" cy="-159.6" rx="49.29" ry="18"/>
<text text-anchor="middle" x="493.6" y="-155.9" font-family="Times New Roman,serif" font-size="14.00">cockroach</text>
</g>
<!-- node13&#45;&gt;node14 -->
<g id="edge14" class="edge">
<title>node13&#45;&gt;node14</title>
<path fill="none" stroke="black" d="M530.29,-228.4C523.76,-216.34 514.92,-200 507.55,-186.39"/>
<polygon fill="black" stroke="black" points="510.57,-184.61 502.73,-177.49 504.41,-187.95 510.57,-184.61"/>
<text text-anchor="middle" x="528.6" y="-199.4" font-family="Times New Roman,serif" font-size="14.00">No</text>
</g>
<!-- node21 -->
<g id="node22" class="node">
<title>node21</title>
<ellipse fill="none" stroke="black" cx="638.6" cy="-159.6" rx="77.99" ry="18"/>
<text text-anchor="middle" x="638.6" y="-155.9" font-family="Times New Roman,serif" font-size="14.00">CHEBURASHKA</text>
</g>
<!-- node13&#45;&gt;node21 -->
<g id="edge21" class="edge">
<title>node13&#45;&gt;node21</title>
<path fill="none" stroke="black" d="M558.68,-229.21C573.65,-216.36 594.68,-198.31 611.41,-183.94"/>
<polygon fill="black" stroke="black" points="613.92,-186.4 619.23,-177.23 609.36,-181.09 613.92,-186.4"/>
<text text-anchor="middle" x="606.6" y="-199.4" font-family="Times New Roman,serif" font-size="14.00">Yes</text>
</g>
<!-- node15 -->
<g id="node16" class="node">
<title>node15</title>
<ellipse fill="none" stroke="black" cx="451.6" cy="-72.6" rx="77.99" ry="18"/>
<text text-anchor="middle" x="451.6" y="-68.9" font-family="Times New Roman,serif" font-size="14.00">POLTORASHKA</text>
</g>
<!-- node14&#45;&gt;node15 -->
<g id="edge15" class="edge">
<title>node14&#45;&gt;node15</title>
<path fill="none" stroke="black" d="M483.47,-141.71C480.19,-136.02 476.62,-129.6 473.6,-123.6 469.81,-116.1 466.01,-107.8 462.66,-100.15"/>
<polygon fill="black" stroke="black" points="465.86,-98.73 458.69,-90.93 459.43,-101.5 465.86,-98.73"/>
<text text-anchor="middle" x="482.6" y="-112.4" font-family="Times New Roman,serif" font-size="14.00">No</text>
</g>
<!-- node18 -->
<g id="node19" class="node">
<title>node18</title>
<ellipse fill="none" stroke="black" cx="579.6" cy="-72.6" rx="32.49" ry="18"/>
<text text-anchor="middle" x="579.6" y="-68.9" font-family="Times New Roman,serif" font-size="14.00">IVAN</text>
</g>
<!-- node14&#45;&gt;node18 -->
<g id="edge18" class="edge">
<title>node14&#45;&gt;node18</title>
<path fill="none" stroke="black" d="M510.18,-142.21C523.48,-129.07 542.28,-110.48 556.97,-95.96"/>
<polygon fill="black" stroke="black" points="559.57,-98.32 564.22,-88.8 554.65,-93.34 559.57,-98.32"/>
<text text-anchor="middle" x="553.6" y="-112.4" font-family="Times New Roman,serif" font-size="14.00">Yes</text>
</g>
<!-- node16 -->
<g id="node17" class="node">
<title>node16</title>
<ellipse fill="black" stroke="black" cx="431.6" cy="-1.8" rx="1.8" ry="1.8"/>
</g>
<!-- node15&#45;&gt;node16 -->
<g id="edge16" class="edge">
<title>node15&#45;&gt;node16</title>
<path fill="none" stroke="black" d="M440.23,-54.47C437.17,-48.99 434.25,-42.74 432.6,-36.6 430.59,-29.16 430.38,-20.47 430.65,-13.76"/>
<polygon fill="black" stroke="black" points="434.15,-13.91 431.48,-3.66 427.17,-13.34 434.15,-13.91"/>
<text text-anchor="middle" x="441.6" y="-25.4" font-family="Times New Roman,serif" font-size="14.00">No</text>
</g>
<!-- node17 -->
<g id="node18" class="node">
<title>node17</title>
<ellipse fill="black" stroke="black" cx="472.6" cy="-1.8" rx="1.8" ry="1.8"/>
</g>
<!-- node15&#45;&gt;node17 -->
<g id="edge17" class="edge">
<title>node15&#45;&gt;node17</title>
<path fill="none" stroke="black" d="M456.79,-54.59C460.75,-41.61 466.08,-24.14 469.43,-13.18"/>
<polygon fill="black" stroke="black" points="472.78,-14.18 472.35,-3.59 466.09,-12.14 472.78,-14.18"/>
<text text-anchor="middle" x="477.6" y="-25.4" font-family="Times New Roman,serif" font-size="14.00">Yes</text>
</g>
<!-- node19 -->
<g id="node20" class="node">
<title>node19</title>
<ellipse fill="black" stroke="black" cx="558.6" cy="-1.8" rx="1.8" ry="1.8"/>
</g>
<!-- node18&#45;&gt;node19 -->
<g id="edge19" class="edge">
<title>node18&#45;&gt;node19</title>
<path fill="none" stroke="black" d="M574.17,-54.53C572.37,-48.83 570.38,-42.45 568.6,-36.6 566.22,-28.82 563.61,-20 561.66,-13.32"/>
<polygon fill="black" stroke="black" points="564.99,-12.26 558.84,-3.64 558.27,-14.22 564.99,-12.26"/>
<text text-anchor="middle" x="577.6" y="-25.4" font-family="Times New Roman,serif" font-size="14.00">No</text>
</g>
<!-- node20 -->
<g id="node21" class="node">
<title>node20</title>
<ellipse fill="black" stroke="black" cx="599.6" cy="-1.8" rx="1.8" ry="1.8"/>
</g>
<!-- node18&#45;&gt;node20 -->
<g id="edge20" class="edge">
<title>node18&#45;&gt;node20</title>
<path fill="none" stroke="black" d="M584.54,-54.59C588.27,-41.76 593.28,-24.53 596.47,-13.55"/>
<polygon fill="black" stroke="black" points="599.93,-14.17 599.36,-3.59 593.21,-12.22 599.93,-14.17"/>
<text text-anchor="middle" x="605.6" y="-25.4" font-family="Times New Roman,serif" font-size="14.00">Yes</text>
</g>
<!-- node22 -->
<g id="node23" class="node">
<title>node22</title>
<ellipse fill="black" stroke="black" cx="634.6" cy="-72.6" rx="1.8" ry="1.8"/>
</g>
<!-- node21&#45;&gt;node22 -->
<g id="edge22" class="edge">
<title>node21&#45;&gt;node22</title>
<path fill="none" stroke="black" d="M636.91,-141.53C636.4,-135.83 635.9,-129.45 635.6,-123.6 634.9,-110.4 634.68,-95.22 634.61,-85.08"/>
<polygon fill="black" stroke="black" points="638.11,-84.83 634.59,-74.84 631.11,-84.85 638.11,-84.83"/>
<text text-anchor="middle" x="644.6" y="-112.4" font-family="Times New Roman,serif" font-size="14.00">No</text>
</g>
<!-- node23 -->
<g id="node24" class="node">
<title>node23</title>
<ellipse fill="black" stroke="black" cx="675.6" cy="-72.6" rx="1.8" ry="1.8"/>
</g>
<!-- node21&#45;&gt;node23 -->
<g id="edge23" class="edge">
<title>node21&#45;&gt;node23</title>
<path fill="none" stroke="black" d="M646.08,-141.4C653.58,-124.17 664.88,-98.21 671.1,-83.93"/>
<polygon fill="black" stroke="black" points="674.34,-85.25 675.12,-74.68 667.92,-82.45 674.34,-85.25"/>
<text text-anchor="middle" x="670.6" y="-112.4" font-family="Times New Roman,serif" font-size="14.00">Yes</text>
</g>
<!-- node25 -->
<g id="node26" class="node">
<title>node25</title>
<ellipse fill="black" stroke="black" cx="736.6" cy="-159.6" rx="1.8" ry="1.8"/>
</g>
<!-- node24&#45;&gt;node25 -->
<g id="edge25" class="edge">
<title>node24&#45;&gt;node25</title>
<path fill="none" stroke="black" d="M736.6,-228.4C736.6,-211.52 736.6,-186.26 736.6,-171.82"/>
<polygon fill="black" stroke="black" points="740.1,-171.68 736.6,-161.68 733.1,-171.68 740.1,-171.68"/>
<text text-anchor="middle" x="745.6" y="-199.4" font-family="Times New Roman,serif" font-size="14.00">No</text>
</g>
<!-- node26 -->
<g id="node27" class="node">
<title>node26</title>
<ellipse fill="black" stroke="black" cx="777.6" cy="-159.6" rx="1.8" ry="1.8"/>
</g>
<!-- node24&#45;&gt;node26 -->
<g id="edge26" class="edge">
<title>node24&#45;&gt;node26</title>
<path fill="none" stroke="black" d="M745.96,-229.01C749.13,-223.24 752.61,-216.68 755.6,-210.6 762.17,-197.19 768.98,-181.35 773.25,-171.15"/>
<polygon fill="black" stroke="black" points="776.51,-172.43 777.09,-161.85 770.04,-169.76 776.51,-172.43"/>
<text text-anchor="middle" x="773.6" y="-199.4" font-family="Times New Roman,serif" font-size="14.00">Yes</text>
</g>
</g>
</svg>
