<?xml version="1.0" encoding="UTF-8" standalone="no"?>
<!DOCTYPE svg PUBLIC "-//W3C//DTD SVG 1.1//EN"
 "http://www.w3.org/Graphics/SVG/1.1/DTD/svg11.dtd">
<!-- Generated by graphviz version 5.0.1 (20220820.1526)
 -->
<!-- Pages: 1 -->
<svg width="1080pt" height="239pt"
 viewBox="0.00 0.00 1080.00 238.73" xmlns="http://www.w3.org/2000/svg" xmlns:xlink="http://www.w3.org/1999/xlink">
<g id="graph0" class="graph" transform="scale(0.463014 0.463014) rotate(0) translate(4 511.6)">
<polygon fill="none" stroke="none" points="-4,4 -4,-511.6 2328.54,-511.6 2328.54,4 -4,4"/>
<!-- node0 -->
<g id="node1" class="node">
<title>node0</title>
<ellipse fill="lightgrey" stroke="black" cx="1686.29" cy="-489.6" rx="28.7" ry="18"/>
<text text-anchor="middle" x="1686.29" y="-485.9" font-family="Times New Roman,serif" font-size="14.00">a girl</text>
</g>
<!-- node1 -->
<g id="node2" class="node">
<title>node1</title>
<ellipse fill="lightgrey" stroke="black" cx="1465.29" cy="-417.6" rx="40.89" ry="18"/>
<text text-anchor="middle" x="1465.29" y="-413.9" font-family="Times New Roman,serif" font-size="14.00">a human</text>
</g>
<!-- node0&#45;&gt;node1 -->
<g id="edge1" class="edge">
<title>node0&#45;&gt;node1</title>
<path fill="none" stroke="red" d="M1661.37,-480.71C1623.93,-468.85 1552.72,-446.29 1507.2,-431.87"/>
<polygon fill="red" stroke="red" points="1508.21,-428.52 1497.62,-428.84 1506.09,-435.19 1508.21,-428.52"/>
</g>
<!-- node60 -->
<g id="node61" class="node">
<title>node60</title>
<ellipse fill="lightgrey" stroke="black" cx="2004.29" cy="-417.6" rx="157.87" ry="18"/>
<text text-anchor="middle" x="2004.29" y="-413.9" font-family="Times New Roman,serif" font-size="14.00">the wither&#39;s girlfriend (maybe in the past)</text>
</g>
<!-- node0&#45;&gt;node60 -->
<g id="edge60" class="edge">
<title>node0&#45;&gt;node60</title>
<path fill="none" stroke="green" d="M1712.86,-482.75C1759.03,-472.59 1855.77,-451.29 1925.13,-436.03"/>
<polygon fill="green" stroke="green" points="1926.14,-439.39 1935.16,-433.82 1924.64,-432.55 1926.14,-439.39"/>
</g>
<!-- node2 -->
<g id="node3" class="node">
<title>node2</title>
<ellipse fill="lightgrey" stroke="black" cx="754.29" cy="-345.6" rx="43.59" ry="18"/>
<text text-anchor="middle" x="754.29" y="-341.9" font-family="Times New Roman,serif" font-size="14.00">a witcher</text>
</g>
<!-- node1&#45;&gt;node2 -->
<g id="edge2" class="edge">
<title>node1&#45;&gt;node2</title>
<path fill="none" stroke="red" d="M1425.8,-412.71C1305.37,-400.85 942.71,-365.15 806.64,-351.75"/>
<polygon fill="red" stroke="red" points="806.77,-348.25 796.47,-350.75 806.08,-355.22 806.77,-348.25"/>
</g>
<!-- node33 -->
<g id="node34" class="node">
<title>node33</title>
<ellipse fill="lightgrey" stroke="black" cx="1465.29" cy="-345.6" rx="161.37" ry="18"/>
<text text-anchor="middle" x="1465.29" y="-341.9" font-family="Times New Roman,serif" font-size="14.00">Nilfgaardian politician (maybe in the past)</text>
</g>
<!-- node1&#45;&gt;node33 -->
<g id="edge33" class="edge">
<title>node1&#45;&gt;node33</title>
<path fill="none" stroke="green" d="M1465.29,-399.3C1465.29,-391.58 1465.29,-382.31 1465.29,-373.71"/>
<polygon fill="green" stroke="green" points="1468.79,-373.7 1465.29,-363.7 1461.79,-373.7 1468.79,-373.7"/>
</g>
<!-- node3 -->
<g id="node4" class="node">
<title>node3</title>
<ellipse fill="lightgrey" stroke="black" cx="393.29" cy="-273.6" rx="38.19" ry="18"/>
<text text-anchor="middle" x="393.29" y="-269.9" font-family="Times New Roman,serif" font-size="14.00">a dwarf</text>
</g>
<!-- node2&#45;&gt;node3 -->
<g id="edge3" class="edge">
<title>node2&#45;&gt;node3</title>
<path fill="none" stroke="red" d="M715.66,-337.11C648.31,-324.05 509.76,-297.18 438.23,-283.31"/>
<polygon fill="red" stroke="red" points="438.66,-279.83 428.18,-281.36 437.33,-286.7 438.66,-279.83"/>
</g>
<!-- node18 -->
<g id="node19" class="node">
<title>node18</title>
<ellipse fill="lightgrey" stroke="black" cx="754.29" cy="-273.6" rx="65.79" ry="18"/>
<text text-anchor="middle" x="754.29" y="-269.9" font-family="Times New Roman,serif" font-size="14.00">The Kingslayer</text>
</g>
<!-- node2&#45;&gt;node18 -->
<g id="edge18" class="edge">
<title>node2&#45;&gt;node18</title>
<path fill="none" stroke="green" d="M754.29,-327.3C754.29,-319.58 754.29,-310.31 754.29,-301.71"/>
<polygon fill="green" stroke="green" points="757.79,-301.7 754.29,-291.7 750.79,-301.7 757.79,-301.7"/>
</g>
<!-- node4 -->
<g id="node5" class="node">
<title>node4</title>
<ellipse fill="lightgrey" stroke="black" cx="277.29" cy="-201.6" rx="36.29" ry="18"/>
<text text-anchor="middle" x="277.29" y="-197.9" font-family="Times New Roman,serif" font-size="14.00">a druid</text>
</g>
<!-- node3&#45;&gt;node4 -->
<g id="edge4" class="edge">
<title>node3&#45;&gt;node4</title>
<path fill="none" stroke="red" d="M370.65,-258.94C352.81,-248.17 327.76,-233.05 308.09,-221.19"/>
<polygon fill="red" stroke="red" points="309.85,-218.16 299.48,-215.99 306.24,-224.15 309.85,-218.16"/>
</g>
<!-- node15 -->
<g id="node16" class="node">
<title>node15</title>
<ellipse fill="lightgrey" stroke="black" cx="393.29" cy="-201.6" rx="61.99" ry="18"/>
<text text-anchor="middle" x="393.29" y="-197.9" font-family="Times New Roman,serif" font-size="14.00">Zoltan Chivay</text>
</g>
<!-- node3&#45;&gt;node15 -->
<g id="edge15" class="edge">
<title>node3&#45;&gt;node15</title>
<path fill="none" stroke="green" d="M393.29,-255.3C393.29,-247.58 393.29,-238.31 393.29,-229.71"/>
<polygon fill="green" stroke="green" points="396.79,-229.7 393.29,-219.7 389.79,-229.7 396.79,-229.7"/>
</g>
<!-- node5 -->
<g id="node6" class="node">
<title>node5</title>
<ellipse fill="lightgrey" stroke="black" cx="145.29" cy="-129.6" rx="72.59" ry="18"/>
<text text-anchor="middle" x="145.29" y="-125.9" font-family="Times New Roman,serif" font-size="14.00">able to transform</text>
</g>
<!-- node4&#45;&gt;node5 -->
<g id="edge5" class="edge">
<title>node4&#45;&gt;node5</title>
<path fill="none" stroke="red" d="M253.39,-187.92C233.93,-177.6 206.09,-162.84 183.54,-150.88"/>
<polygon fill="red" stroke="red" points="185.03,-147.71 174.56,-146.12 181.75,-153.9 185.03,-147.71"/>
</g>
<!-- node12 -->
<g id="node13" class="node">
<title>node12</title>
<ellipse fill="lightgrey" stroke="black" cx="288.29" cy="-129.6" rx="51.99" ry="18"/>
<text text-anchor="middle" x="288.29" y="-125.9" font-family="Times New Roman,serif" font-size="14.00">Mousesack</text>
</g>
<!-- node4&#45;&gt;node12 -->
<g id="edge12" class="edge">
<title>node4&#45;&gt;node12</title>
<path fill="none" stroke="green" d="M280.01,-183.3C281.23,-175.58 282.68,-166.31 284.03,-157.71"/>
<polygon fill="green" stroke="green" points="287.51,-158.13 285.61,-147.7 280.6,-157.04 287.51,-158.13"/>
</g>
<!-- node6 -->
<g id="node7" class="node">
<title>node6</title>
<ellipse fill="lightgrey" stroke="black" cx="66.29" cy="-57.6" rx="66.09" ry="18"/>
<text text-anchor="middle" x="66.29" y="-53.9" font-family="Times New Roman,serif" font-size="14.00">Johnny (Ivasik)</text>
</g>
<!-- node5&#45;&gt;node6 -->
<g id="edge6" class="edge">
<title>node5&#45;&gt;node6</title>
<path fill="none" stroke="red" d="M126.57,-112.01C116.44,-103.03 103.75,-91.79 92.64,-81.94"/>
<polygon fill="red" stroke="red" points="94.69,-79.08 84.88,-75.07 90.05,-84.32 94.69,-79.08"/>
</g>
<!-- node9 -->
<g id="node10" class="node">
<title>node9</title>
<ellipse fill="lightgrey" stroke="black" cx="181.29" cy="-57.6" rx="30.59" ry="18"/>
<text text-anchor="middle" x="181.29" y="-53.9" font-family="Times New Roman,serif" font-size="14.00">Dudu</text>
</g>
<!-- node5&#45;&gt;node9 -->
<g id="edge9" class="edge">
<title>node5&#45;&gt;node9</title>
<path fill="none" stroke="green" d="M154.01,-111.65C158.21,-103.49 163.34,-93.51 168.01,-84.42"/>
<polygon fill="green" stroke="green" points="171.2,-85.88 172.66,-75.39 164.97,-82.68 171.2,-85.88"/>
</g>
<!-- node7 -->
<g id="node8" class="node">
<title>node7</title>
<ellipse fill="black" stroke="black" cx="55.29" cy="-1.8" rx="1.8" ry="1.8"/>
</g>
<!-- node6&#45;&gt;node7 -->
<g id="edge7" class="edge">
<title>node6&#45;&gt;node7</title>
<path fill="none" stroke="red" d="M62.81,-39.58C61.07,-31.07 59.02,-21.02 57.5,-13.58"/>
<polygon fill="red" stroke="red" points="60.92,-12.83 55.49,-3.73 54.06,-14.23 60.92,-12.83"/>
</g>
<!-- node8 -->
<g id="node9" class="node">
<title>node8</title>
<ellipse fill="black" stroke="black" cx="77.29" cy="-1.8" rx="1.8" ry="1.8"/>
</g>
<!-- node6&#45;&gt;node8 -->
<g id="edge8" class="edge">
<title>node6&#45;&gt;node8</title>
<path fill="none" stroke="green" d="M69.77,-39.58C71.51,-31.07 73.57,-21.02 75.09,-13.58"/>
<polygon fill="green" stroke="green" points="78.53,-14.23 77.1,-3.73 71.67,-12.83 78.53,-14.23"/>
</g>
<!-- node10 -->
<g id="node11" class="node">
<title>node10</title>
<ellipse fill="black" stroke="black" cx="170.29" cy="-1.8" rx="1.8" ry="1.8"/>
</g>
<!-- node9&#45;&gt;node10 -->
<g id="edge10" class="edge">
<title>node9&#45;&gt;node10</title>
<path fill="none" stroke="red" d="M177.81,-39.58C176.07,-31.07 174.02,-21.02 172.5,-13.58"/>
<polygon fill="red" stroke="red" points="175.92,-12.83 170.49,-3.73 169.06,-14.23 175.92,-12.83"/>
</g>
<!-- node11 -->
<g id="node12" class="node">
<title>node11</title>
<ellipse fill="black" stroke="black" cx="192.29" cy="-1.8" rx="1.8" ry="1.8"/>
</g>
<!-- node9&#45;&gt;node11 -->
<g id="edge11" class="edge">
<title>node9&#45;&gt;node11</title>
<path fill="none" stroke="green" d="M184.77,-39.58C186.51,-31.07 188.57,-21.02 190.09,-13.58"/>
<polygon fill="green" stroke="green" points="193.53,-14.23 192.1,-3.73 186.67,-12.83 193.53,-14.23"/>
</g>
<!-- node13 -->
<g id="node14" class="node">
<title>node13</title>
<ellipse fill="black" stroke="black" cx="277.29" cy="-57.6" rx="1.8" ry="1.8"/>
</g>
<!-- node12&#45;&gt;node13 -->
<g id="edge13" class="edge">
<title>node12&#45;&gt;node13</title>
<path fill="none" stroke="red" d="M285.58,-111.3C283.52,-98.23 280.77,-80.71 279.01,-69.53"/>
<polygon fill="red" stroke="red" points="282.43,-68.74 277.42,-59.41 275.52,-69.83 282.43,-68.74"/>
</g>
<!-- node14 -->
<g id="node15" class="node">
<title>node14</title>
<ellipse fill="black" stroke="black" cx="299.29" cy="-57.6" rx="1.8" ry="1.8"/>
</g>
<!-- node12&#45;&gt;node14 -->
<g id="edge14" class="edge">
<title>node12&#45;&gt;node14</title>
<path fill="none" stroke="green" d="M291.01,-111.3C293.07,-98.23 295.82,-80.71 297.58,-69.53"/>
<polygon fill="green" stroke="green" points="301.07,-69.83 299.17,-59.41 294.16,-68.74 301.07,-69.83"/>
</g>
<!-- node16 -->
<g id="node17" class="node">
<title>node16</title>
<ellipse fill="black" stroke="black" cx="371.29" cy="-129.6" rx="1.8" ry="1.8"/>
</g>
<!-- node15&#45;&gt;node16 -->
<g id="edge16" class="edge">
<title>node15&#45;&gt;node16</title>
<path fill="none" stroke="red" d="M387.97,-183.65C383.82,-170.45 378.19,-152.53 374.65,-141.27"/>
<polygon fill="red" stroke="red" points="377.89,-139.91 371.55,-131.42 371.21,-142.01 377.89,-139.91"/>
</g>
<!-- node17 -->
<g id="node18" class="node">
<title>node17</title>
<ellipse fill="black" stroke="black" cx="393.29" cy="-129.6" rx="1.8" ry="1.8"/>
</g>
<!-- node15&#45;&gt;node17 -->
<g id="edge17" class="edge">
<title>node15&#45;&gt;node17</title>
<path fill="none" stroke="green" d="M393.29,-183.3C393.29,-170.23 393.29,-152.71 393.29,-141.53"/>
<polygon fill="green" stroke="green" points="396.79,-141.41 393.29,-131.41 389.79,-141.41 396.79,-141.41"/>
</g>
<!-- node19 -->
<g id="node20" class="node">
<title>node19</title>
<ellipse fill="lightgrey" stroke="black" cx="681.29" cy="-201.6" rx="64.99" ry="18"/>
<text text-anchor="middle" x="681.29" y="-197.9" font-family="Times New Roman,serif" font-size="14.00">alcoholic&#39;s son</text>
</g>
<!-- node18&#45;&gt;node19 -->
<g id="edge19" class="edge">
<title>node18&#45;&gt;node19</title>
<path fill="none" stroke="red" d="M736.99,-256.01C727.72,-247.12 716.14,-236.01 705.94,-226.23"/>
<polygon fill="red" stroke="red" points="708.11,-223.46 698.47,-219.07 703.27,-228.52 708.11,-223.46"/>
</g>
<!-- node30 -->
<g id="node31" class="node">
<title>node30</title>
<ellipse fill="lightgrey" stroke="black" cx="828.29" cy="-201.6" rx="63.89" ry="18"/>
<text text-anchor="middle" x="828.29" y="-197.9" font-family="Times New Roman,serif" font-size="14.00">Letho of Gulet</text>
</g>
<!-- node18&#45;&gt;node30 -->
<g id="edge30" class="edge">
<title>node18&#45;&gt;node30</title>
<path fill="none" stroke="green" d="M771.83,-256.01C781.32,-247.03 793.2,-235.79 803.62,-225.94"/>
<polygon fill="green" stroke="green" points="806.02,-228.48 810.88,-219.07 801.21,-223.4 806.02,-228.48"/>
</g>
<!-- node20 -->
<g id="node21" class="node">
<title>node20</title>
<ellipse fill="lightgrey" stroke="black" cx="555.29" cy="-129.6" rx="142.17" ry="18"/>
<text text-anchor="middle" x="555.29" y="-125.9" font-family="Times New Roman,serif" font-size="14.00">the oldest wither in the Caer Morhen</text>
</g>
<!-- node19&#45;&gt;node20 -->
<g id="edge20" class="edge">
<title>node19&#45;&gt;node20</title>
<path fill="none" stroke="red" d="M653.64,-185.24C636.26,-175.58 613.56,-162.97 594.35,-152.3"/>
<polygon fill="red" stroke="red" points="595.97,-149.19 585.53,-147.4 592.57,-155.31 595.97,-149.19"/>
</g>
<!-- node27 -->
<g id="node28" class="node">
<title>node27</title>
<ellipse fill="lightgrey" stroke="black" cx="756.29" cy="-129.6" rx="40.89" ry="18"/>
<text text-anchor="middle" x="756.29" y="-125.9" font-family="Times New Roman,serif" font-size="14.00">Lambert</text>
</g>
<!-- node19&#45;&gt;node27 -->
<g id="edge27" class="edge">
<title>node19&#45;&gt;node27</title>
<path fill="none" stroke="green" d="M699.07,-184.01C708.97,-174.77 721.43,-163.14 732.2,-153.09"/>
<polygon fill="green" stroke="green" points="734.75,-155.49 739.68,-146.11 729.98,-150.38 734.75,-155.49"/>
</g>
<!-- node21 -->
<g id="node22" class="node">
<title>node21</title>
<ellipse fill="lightgrey" stroke="black" cx="509.29" cy="-57.6" rx="32.49" ry="18"/>
<text text-anchor="middle" x="509.29" y="-53.9" font-family="Times New Roman,serif" font-size="14.00">Geralt</text>
</g>
<!-- node20&#45;&gt;node21 -->
<g id="edge21" class="edge">
<title>node20&#45;&gt;node21</title>
<path fill="none" stroke="red" d="M544.16,-111.65C538.6,-103.19 531.76,-92.79 525.62,-83.44"/>
<polygon fill="red" stroke="red" points="528.43,-81.34 520.01,-74.91 522.58,-85.19 528.43,-81.34"/>
</g>
<!-- node24 -->
<g id="node25" class="node">
<title>node24</title>
<ellipse fill="lightgrey" stroke="black" cx="600.29" cy="-57.6" rx="40.09" ry="18"/>
<text text-anchor="middle" x="600.29" y="-53.9" font-family="Times New Roman,serif" font-size="14.00">Vesemir</text>
</g>
<!-- node20&#45;&gt;node24 -->
<g id="edge24" class="edge">
<title>node20&#45;&gt;node24</title>
<path fill="none" stroke="green" d="M566.42,-111.3C571.73,-103.04 578.18,-92.99 584.03,-83.9"/>
<polygon fill="green" stroke="green" points="587.14,-85.53 589.61,-75.22 581.26,-81.74 587.14,-85.53"/>
</g>
<!-- node22 -->
<g id="node23" class="node">
<title>node22</title>
<ellipse fill="black" stroke="black" cx="498.29" cy="-1.8" rx="1.8" ry="1.8"/>
</g>
<!-- node21&#45;&gt;node22 -->
<g id="edge22" class="edge">
<title>node21&#45;&gt;node22</title>
<path fill="none" stroke="red" d="M505.81,-39.58C504.07,-31.07 502.02,-21.02 500.5,-13.58"/>
<polygon fill="red" stroke="red" points="503.92,-12.83 498.49,-3.73 497.06,-14.23 503.92,-12.83"/>
</g>
<!-- node23 -->
<g id="node24" class="node">
<title>node23</title>
<ellipse fill="black" stroke="black" cx="520.29" cy="-1.8" rx="1.8" ry="1.8"/>
</g>
<!-- node21&#45;&gt;node23 -->
<g id="edge23" class="edge">
<title>node21&#45;&gt;node23</title>
<path fill="none" stroke="green" d="M512.77,-39.58C514.51,-31.07 516.57,-21.02 518.09,-13.58"/>
<polygon fill="green" stroke="green" points="521.53,-14.23 520.1,-3.73 514.67,-12.83 521.53,-14.23"/>
</g>
<!-- node25 -->
<g id="node26" class="node">
<title>node25</title>
<ellipse fill="black" stroke="black" cx="589.29" cy="-1.8" rx="1.8" ry="1.8"/>
</g>
<!-- node24&#45;&gt;node25 -->
<g id="edge25" class="edge">
<title>node24&#45;&gt;node25</title>
<path fill="none" stroke="red" d="M596.81,-39.58C595.07,-31.07 593.02,-21.02 591.5,-13.58"/>
<polygon fill="red" stroke="red" points="594.92,-12.83 589.49,-3.73 588.06,-14.23 594.92,-12.83"/>
</g>
<!-- node26 -->
<g id="node27" class="node">
<title>node26</title>
<ellipse fill="black" stroke="black" cx="611.29" cy="-1.8" rx="1.8" ry="1.8"/>
</g>
<!-- node24&#45;&gt;node26 -->
<g id="edge26" class="edge">
<title>node24&#45;&gt;node26</title>
<path fill="none" stroke="green" d="M603.77,-39.58C605.51,-31.07 607.57,-21.02 609.09,-13.58"/>
<polygon fill="green" stroke="green" points="612.53,-14.23 611.1,-3.73 605.67,-12.83 612.53,-14.23"/>
</g>
<!-- node28 -->
<g id="node29" class="node">
<title>node28</title>
<ellipse fill="black" stroke="black" cx="745.29" cy="-57.6" rx="1.8" ry="1.8"/>
</g>
<!-- node27&#45;&gt;node28 -->
<g id="edge28" class="edge">
<title>node27&#45;&gt;node28</title>
<path fill="none" stroke="red" d="M753.58,-111.3C751.52,-98.23 748.77,-80.71 747.01,-69.53"/>
<polygon fill="red" stroke="red" points="750.43,-68.74 745.42,-59.41 743.52,-69.83 750.43,-68.74"/>
</g>
<!-- node29 -->
<g id="node30" class="node">
<title>node29</title>
<ellipse fill="black" stroke="black" cx="767.29" cy="-57.6" rx="1.8" ry="1.8"/>
</g>
<!-- node27&#45;&gt;node29 -->
<g id="edge29" class="edge">
<title>node27&#45;&gt;node29</title>
<path fill="none" stroke="green" d="M759.01,-111.3C761.07,-98.23 763.82,-80.71 765.58,-69.53"/>
<polygon fill="green" stroke="green" points="769.07,-69.83 767.17,-59.41 762.16,-68.74 769.07,-69.83"/>
</g>
<!-- node31 -->
<g id="node32" class="node">
<title>node31</title>
<ellipse fill="black" stroke="black" cx="817.29" cy="-129.6" rx="1.8" ry="1.8"/>
</g>
<!-- node30&#45;&gt;node31 -->
<g id="edge31" class="edge">
<title>node30&#45;&gt;node31</title>
<path fill="none" stroke="red" d="M825.58,-183.3C823.52,-170.23 820.77,-152.71 819.01,-141.53"/>
<polygon fill="red" stroke="red" points="822.43,-140.74 817.42,-131.41 815.52,-141.83 822.43,-140.74"/>
</g>
<!-- node32 -->
<g id="node33" class="node">
<title>node32</title>
<ellipse fill="black" stroke="black" cx="839.29" cy="-129.6" rx="1.8" ry="1.8"/>
</g>
<!-- node30&#45;&gt;node32 -->
<g id="edge32" class="edge">
<title>node30&#45;&gt;node32</title>
<path fill="none" stroke="green" d="M831.01,-183.3C833.07,-170.23 835.82,-152.71 837.58,-141.53"/>
<polygon fill="green" stroke="green" points="841.07,-141.83 839.17,-131.41 834.16,-140.74 841.07,-141.83"/>
</g>
<!-- node34 -->
<g id="node35" class="node">
<title>node34</title>
<ellipse fill="lightgrey" stroke="black" cx="1356.29" cy="-273.6" rx="27" ry="18"/>
<text text-anchor="middle" x="1356.29" y="-269.9" font-family="Times New Roman,serif" font-size="14.00">spy</text>
</g>
<!-- node33&#45;&gt;node34 -->
<g id="edge34" class="edge">
<title>node33&#45;&gt;node34</title>
<path fill="none" stroke="red" d="M1439.19,-327.83C1422.35,-317.02 1400.49,-302.98 1383.44,-292.04"/>
<polygon fill="red" stroke="red" points="1385.33,-289.09 1375.02,-286.63 1381.55,-294.98 1385.33,-289.09"/>
</g>
<!-- node49 -->
<g id="node50" class="node">
<title>node49</title>
<ellipse fill="lightgrey" stroke="black" cx="1574.29" cy="-273.6" rx="158.67" ry="18"/>
<text text-anchor="middle" x="1574.29" y="-269.9" font-family="Times New Roman,serif" font-size="14.00">emperor of Nilfgaard (maybe in the past)</text>
</g>
<!-- node33&#45;&gt;node49 -->
<g id="edge49" class="edge">
<title>node33&#45;&gt;node49</title>
<path fill="none" stroke="green" d="M1491.4,-327.83C1505.72,-318.64 1523.67,-307.11 1539.2,-297.14"/>
<polygon fill="green" stroke="green" points="1541.5,-299.82 1548.02,-291.47 1537.72,-293.93 1541.5,-299.82"/>
</g>
<!-- node35 -->
<g id="node36" class="node">
<title>node35</title>
<ellipse fill="lightgrey" stroke="black" cx="1151.29" cy="-201.6" rx="104.78" ry="18"/>
<text text-anchor="middle" x="1151.29" y="-197.9" font-family="Times New Roman,serif" font-size="14.00">a member of the Big Four</text>
</g>
<!-- node34&#45;&gt;node35 -->
<g id="edge35" class="edge">
<title>node34&#45;&gt;node35</title>
<path fill="none" stroke="red" d="M1332.78,-264.57C1302.01,-254.06 1247.15,-235.33 1205.78,-221.2"/>
<polygon fill="red" stroke="red" points="1206.7,-217.82 1196.11,-217.9 1204.44,-224.45 1206.7,-217.82"/>
</g>
<!-- node42 -->
<g id="node43" class="node">
<title>node42</title>
<ellipse fill="lightgrey" stroke="black" cx="1356.29" cy="-201.6" rx="63.09" ry="18"/>
<text text-anchor="middle" x="1356.29" y="-197.9" font-family="Times New Roman,serif" font-size="14.00">a redanian spy</text>
</g>
<!-- node34&#45;&gt;node42 -->
<g id="edge42" class="edge">
<title>node34&#45;&gt;node42</title>
<path fill="none" stroke="green" d="M1356.29,-255.3C1356.29,-247.58 1356.29,-238.31 1356.29,-229.71"/>
<polygon fill="green" stroke="green" points="1359.79,-229.7 1356.29,-219.7 1352.79,-229.7 1359.79,-229.7"/>
</g>
<!-- node36 -->
<g id="node37" class="node">
<title>node36</title>
<ellipse fill="lightgrey" stroke="black" cx="922.29" cy="-129.6" rx="63.89" ry="18"/>
<text text-anchor="middle" x="922.29" y="-125.9" font-family="Times New Roman,serif" font-size="14.00">Vernon Roche</text>
</g>
<!-- node35&#45;&gt;node36 -->
<g id="edge36" class="edge">
<title>node35&#45;&gt;node36</title>
<path fill="none" stroke="red" d="M1102.45,-185.67C1064.59,-174.1 1012.26,-158.1 973.75,-146.33"/>
<polygon fill="red" stroke="red" points="974.36,-142.86 963.78,-143.28 972.32,-149.55 974.36,-142.86"/>
</g>
<!-- node39 -->
<g id="node40" class="node">
<title>node39</title>
<ellipse fill="lightgrey" stroke="black" cx="1151.29" cy="-129.6" rx="147.57" ry="18"/>
<text text-anchor="middle" x="1151.29" y="-125.9" font-family="Times New Roman,serif" font-size="14.00">Francis Bedlam (the King of Beggars)</text>
</g>
<!-- node35&#45;&gt;node39 -->
<g id="edge39" class="edge">
<title>node35&#45;&gt;node39</title>
<path fill="none" stroke="green" d="M1151.29,-183.3C1151.29,-175.58 1151.29,-166.31 1151.29,-157.71"/>
<polygon fill="green" stroke="green" points="1154.79,-157.7 1151.29,-147.7 1147.79,-157.7 1154.79,-157.7"/>
</g>
<!-- node37 -->
<g id="node38" class="node">
<title>node37</title>
<ellipse fill="black" stroke="black" cx="911.29" cy="-57.6" rx="1.8" ry="1.8"/>
</g>
<!-- node36&#45;&gt;node37 -->
<g id="edge37" class="edge">
<title>node36&#45;&gt;node37</title>
<path fill="none" stroke="red" d="M919.58,-111.3C917.52,-98.23 914.77,-80.71 913.01,-69.53"/>
<polygon fill="red" stroke="red" points="916.43,-68.74 911.42,-59.41 909.52,-69.83 916.43,-68.74"/>
</g>
<!-- node38 -->
<g id="node39" class="node">
<title>node38</title>
<ellipse fill="black" stroke="black" cx="933.29" cy="-57.6" rx="1.8" ry="1.8"/>
</g>
<!-- node36&#45;&gt;node38 -->
<g id="edge38" class="edge">
<title>node36&#45;&gt;node38</title>
<path fill="none" stroke="green" d="M925.01,-111.3C927.07,-98.23 929.82,-80.71 931.58,-69.53"/>
<polygon fill="green" stroke="green" points="935.07,-69.83 933.17,-59.41 928.16,-68.74 935.07,-69.83"/>
</g>
<!-- node40 -->
<g id="node41" class="node">
<title>node40</title>
<ellipse fill="black" stroke="black" cx="1140.29" cy="-57.6" rx="1.8" ry="1.8"/>
</g>
<!-- node39&#45;&gt;node40 -->
<g id="edge40" class="edge">
<title>node39&#45;&gt;node40</title>
<path fill="none" stroke="red" d="M1148.58,-111.3C1146.52,-98.23 1143.77,-80.71 1142.01,-69.53"/>
<polygon fill="red" stroke="red" points="1145.43,-68.74 1140.42,-59.41 1138.52,-69.83 1145.43,-68.74"/>
</g>
<!-- node41 -->
<g id="node42" class="node">
<title>node41</title>
<ellipse fill="black" stroke="black" cx="1162.29" cy="-57.6" rx="1.8" ry="1.8"/>
</g>
<!-- node39&#45;&gt;node41 -->
<g id="edge41" class="edge">
<title>node39&#45;&gt;node41</title>
<path fill="none" stroke="green" d="M1154.01,-111.3C1156.07,-98.23 1158.82,-80.71 1160.58,-69.53"/>
<polygon fill="green" stroke="green" points="1164.07,-69.83 1162.17,-59.41 1157.16,-68.74 1164.07,-69.83"/>
</g>
<!-- node43 -->
<g id="node44" class="node">
<title>node43</title>
<ellipse fill="lightgrey" stroke="black" cx="1350.29" cy="-129.6" rx="33.6" ry="18"/>
<text text-anchor="middle" x="1350.29" y="-125.9" font-family="Times New Roman,serif" font-size="14.00">Thaler</text>
</g>
<!-- node42&#45;&gt;node43 -->
<g id="edge43" class="edge">
<title>node42&#45;&gt;node43</title>
<path fill="none" stroke="red" d="M1354.81,-183.3C1354.15,-175.58 1353.36,-166.31 1352.62,-157.71"/>
<polygon fill="red" stroke="red" points="1356.1,-157.37 1351.76,-147.7 1349.13,-157.97 1356.1,-157.37"/>
</g>
<!-- node46 -->
<g id="node47" class="node">
<title>node46</title>
<ellipse fill="lightgrey" stroke="black" cx="1481.29" cy="-129.6" rx="79.09" ry="18"/>
<text text-anchor="middle" x="1481.29" y="-125.9" font-family="Times New Roman,serif" font-size="14.00">Sigismund Dijkstra</text>
</g>
<!-- node42&#45;&gt;node46 -->
<g id="edge46" class="edge">
<title>node42&#45;&gt;node46</title>
<path fill="none" stroke="green" d="M1383.73,-185.24C1401.35,-175.37 1424.46,-162.43 1443.77,-151.61"/>
<polygon fill="green" stroke="green" points="1445.61,-154.6 1452.62,-146.66 1442.19,-148.49 1445.61,-154.6"/>
</g>
<!-- node44 -->
<g id="node45" class="node">
<title>node44</title>
<ellipse fill="black" stroke="black" cx="1339.29" cy="-57.6" rx="1.8" ry="1.8"/>
</g>
<!-- node43&#45;&gt;node44 -->
<g id="edge44" class="edge">
<title>node43&#45;&gt;node44</title>
<path fill="none" stroke="red" d="M1347.63,-111.65C1345.58,-98.6 1342.8,-80.93 1341.03,-69.65"/>
<polygon fill="red" stroke="red" points="1344.43,-68.75 1339.42,-59.42 1337.52,-69.84 1344.43,-68.75"/>
</g>
<!-- node45 -->
<g id="node46" class="node">
<title>node45</title>
<ellipse fill="black" stroke="black" cx="1361.29" cy="-57.6" rx="1.8" ry="1.8"/>
</g>
<!-- node43&#45;&gt;node45 -->
<g id="edge45" class="edge">
<title>node43&#45;&gt;node45</title>
<path fill="none" stroke="green" d="M1352.96,-111.65C1355.01,-98.6 1357.78,-80.93 1359.56,-69.65"/>
<polygon fill="green" stroke="green" points="1363.07,-69.84 1361.17,-59.42 1356.16,-68.75 1363.07,-69.84"/>
</g>
<!-- node47 -->
<g id="node48" class="node">
<title>node47</title>
<ellipse fill="black" stroke="black" cx="1470.29" cy="-57.6" rx="1.8" ry="1.8"/>
</g>
<!-- node46&#45;&gt;node47 -->
<g id="edge47" class="edge">
<title>node46&#45;&gt;node47</title>
<path fill="none" stroke="red" d="M1478.58,-111.3C1476.52,-98.23 1473.77,-80.71 1472.01,-69.53"/>
<polygon fill="red" stroke="red" points="1475.43,-68.74 1470.42,-59.41 1468.52,-69.83 1475.43,-68.74"/>
</g>
<!-- node48 -->
<g id="node49" class="node">
<title>node48</title>
<ellipse fill="black" stroke="black" cx="1492.29" cy="-57.6" rx="1.8" ry="1.8"/>
</g>
<!-- node46&#45;&gt;node48 -->
<g id="edge48" class="edge">
<title>node46&#45;&gt;node48</title>
<path fill="none" stroke="green" d="M1484.01,-111.3C1486.07,-98.23 1488.82,-80.71 1490.58,-69.53"/>
<polygon fill="green" stroke="green" points="1494.07,-69.83 1492.17,-59.41 1487.16,-68.74 1494.07,-69.83"/>
</g>
<!-- node50 -->
<g id="node51" class="node">
<title>node50</title>
<ellipse fill="lightgrey" stroke="black" cx="1574.29" cy="-201.6" rx="125.38" ry="18"/>
<text text-anchor="middle" x="1574.29" y="-197.9" font-family="Times New Roman,serif" font-size="14.00">Phillip Strenger (Bloody Baron)</text>
</g>
<!-- node49&#45;&gt;node50 -->
<g id="edge50" class="edge">
<title>node49&#45;&gt;node50</title>
<path fill="none" stroke="red" d="M1574.29,-255.3C1574.29,-247.58 1574.29,-238.31 1574.29,-229.71"/>
<polygon fill="red" stroke="red" points="1577.79,-229.7 1574.29,-219.7 1570.79,-229.7 1577.79,-229.7"/>
</g>
<!-- node53 -->
<g id="node54" class="node">
<title>node53</title>
<ellipse fill="lightgrey" stroke="black" cx="1845.29" cy="-201.6" rx="127.28" ry="18"/>
<text text-anchor="middle" x="1845.29" y="-197.9" font-family="Times New Roman,serif" font-size="14.00">commander of the Alba division</text>
</g>
<!-- node49&#45;&gt;node53 -->
<g id="edge53" class="edge">
<title>node49&#45;&gt;node53</title>
<path fill="none" stroke="green" d="M1635.11,-256.89C1677.33,-245.99 1733.62,-231.45 1777.32,-220.16"/>
<polygon fill="green" stroke="green" points="1778.2,-223.55 1787,-217.66 1776.45,-216.77 1778.2,-223.55"/>
</g>
<!-- node51 -->
<g id="node52" class="node">
<title>node51</title>
<ellipse fill="black" stroke="black" cx="1580.29" cy="-129.6" rx="1.8" ry="1.8"/>
</g>
<!-- node50&#45;&gt;node51 -->
<g id="edge51" class="edge">
<title>node50&#45;&gt;node51</title>
<path fill="none" stroke="red" d="M1575.78,-183.3C1576.9,-170.23 1578.4,-152.71 1579.36,-141.53"/>
<polygon fill="red" stroke="red" points="1582.86,-141.67 1580.22,-131.41 1575.88,-141.07 1582.86,-141.67"/>
</g>
<!-- node52 -->
<g id="node53" class="node">
<title>node52</title>
<ellipse fill="black" stroke="black" cx="1602.29" cy="-129.6" rx="1.8" ry="1.8"/>
</g>
<!-- node50&#45;&gt;node52 -->
<g id="edge52" class="edge">
<title>node50&#45;&gt;node52</title>
<path fill="none" stroke="green" d="M1581.22,-183.3C1586.56,-169.94 1593.77,-151.92 1598.22,-140.79"/>
<polygon fill="green" stroke="green" points="1601.51,-141.99 1601.97,-131.41 1595.01,-139.39 1601.51,-141.99"/>
</g>
<!-- node54 -->
<g id="node55" class="node">
<title>node54</title>
<ellipse fill="lightgrey" stroke="black" cx="1768.29" cy="-129.6" rx="75.29" ry="18"/>
<text text-anchor="middle" x="1768.29" y="-125.9" font-family="Times New Roman,serif" font-size="14.00">Emhyr var Emreis</text>
</g>
<!-- node53&#45;&gt;node54 -->
<g id="edge54" class="edge">
<title>node53&#45;&gt;node54</title>
<path fill="none" stroke="red" d="M1826.65,-183.65C1816.84,-174.73 1804.66,-163.66 1793.96,-153.94"/>
<polygon fill="red" stroke="red" points="1796.25,-151.28 1786.5,-147.15 1791.54,-156.46 1796.25,-151.28"/>
</g>
<!-- node57 -->
<g id="node58" class="node">
<title>node57</title>
<ellipse fill="lightgrey" stroke="black" cx="1935.29" cy="-129.6" rx="73.39" ry="18"/>
<text text-anchor="middle" x="1935.29" y="-125.9" font-family="Times New Roman,serif" font-size="14.00">Morvran Voorhis</text>
</g>
<!-- node53&#45;&gt;node57 -->
<g id="edge57" class="edge">
<title>node53&#45;&gt;node57</title>
<path fill="none" stroke="green" d="M1867.08,-183.65C1878.86,-174.49 1893.56,-163.06 1906.29,-153.16"/>
<polygon fill="green" stroke="green" points="1908.58,-155.81 1914.33,-146.91 1904.29,-150.28 1908.58,-155.81"/>
</g>
<!-- node55 -->
<g id="node56" class="node">
<title>node55</title>
<ellipse fill="black" stroke="black" cx="1757.29" cy="-57.6" rx="1.8" ry="1.8"/>
</g>
<!-- node54&#45;&gt;node55 -->
<g id="edge55" class="edge">
<title>node54&#45;&gt;node55</title>
<path fill="none" stroke="red" d="M1765.58,-111.3C1763.52,-98.23 1760.77,-80.71 1759.01,-69.53"/>
<polygon fill="red" stroke="red" points="1762.43,-68.74 1757.42,-59.41 1755.52,-69.83 1762.43,-68.74"/>
</g>
<!-- node56 -->
<g id="node57" class="node">
<title>node56</title>
<ellipse fill="black" stroke="black" cx="1779.29" cy="-57.6" rx="1.8" ry="1.8"/>
</g>
<!-- node54&#45;&gt;node56 -->
<g id="edge56" class="edge">
<title>node54&#45;&gt;node56</title>
<path fill="none" stroke="green" d="M1771.01,-111.3C1773.07,-98.23 1775.82,-80.71 1777.58,-69.53"/>
<polygon fill="green" stroke="green" points="1781.07,-69.83 1779.17,-59.41 1774.16,-68.74 1781.07,-69.83"/>
</g>
<!-- node58 -->
<g id="node59" class="node">
<title>node58</title>
<ellipse fill="black" stroke="black" cx="1924.29" cy="-57.6" rx="1.8" ry="1.8"/>
</g>
<!-- node57&#45;&gt;node58 -->
<g id="edge58" class="edge">
<title>node57&#45;&gt;node58</title>
<path fill="none" stroke="red" d="M1932.58,-111.3C1930.52,-98.23 1927.77,-80.71 1926.01,-69.53"/>
<polygon fill="red" stroke="red" points="1929.43,-68.74 1924.42,-59.41 1922.52,-69.83 1929.43,-68.74"/>
</g>
<!-- node59 -->
<g id="node60" class="node">
<title>node59</title>
<ellipse fill="black" stroke="black" cx="1946.29" cy="-57.6" rx="1.8" ry="1.8"/>
</g>
<!-- node57&#45;&gt;node59 -->
<g id="edge59" class="edge">
<title>node57&#45;&gt;node59</title>
<path fill="none" stroke="green" d="M1938.01,-111.3C1940.07,-98.23 1942.82,-80.71 1944.58,-69.53"/>
<polygon fill="green" stroke="green" points="1948.07,-69.83 1946.17,-59.41 1941.16,-68.74 1948.07,-69.83"/>
</g>
<!-- node61 -->
<g id="node62" class="node">
<title>node61</title>
<ellipse fill="lightgrey" stroke="black" cx="2004.29" cy="-345.6" rx="122.38" ry="18"/>
<text text-anchor="middle" x="2004.29" y="-341.9" font-family="Times New Roman,serif" font-size="14.00">the enchantress from the lodge</text>
</g>
<!-- node60&#45;&gt;node61 -->
<g id="edge61" class="edge">
<title>node60&#45;&gt;node61</title>
<path fill="none" stroke="red" d="M2004.29,-399.3C2004.29,-391.58 2004.29,-382.31 2004.29,-373.71"/>
<polygon fill="red" stroke="red" points="2007.79,-373.7 2004.29,-363.7 2000.79,-373.7 2007.79,-373.7"/>
</g>
<!-- node68 -->
<g id="node69" class="node">
<title>node68</title>
<ellipse fill="lightgrey" stroke="black" cx="2204.29" cy="-345.6" rx="47.39" ry="18"/>
<text text-anchor="middle" x="2204.29" y="-341.9" font-family="Times New Roman,serif" font-size="14.00">red&#45;haired</text>
</g>
<!-- node60&#45;&gt;node68 -->
<g id="edge68" class="edge">
<title>node60&#45;&gt;node68</title>
<path fill="none" stroke="green" d="M2050.68,-400.36C2083.94,-388.73 2128.42,-373.16 2160.96,-361.77"/>
<polygon fill="green" stroke="green" points="2162.37,-364.98 2170.65,-358.38 2160.05,-358.38 2162.37,-364.98"/>
</g>
<!-- node62 -->
<g id="node63" class="node">
<title>node62</title>
<ellipse fill="lightgrey" stroke="black" cx="1992.29" cy="-273.6" rx="31.7" ry="18"/>
<text text-anchor="middle" x="1992.29" y="-269.9" font-family="Times New Roman,serif" font-size="14.00">Cirilla</text>
</g>
<!-- node61&#45;&gt;node62 -->
<g id="edge62" class="edge">
<title>node61&#45;&gt;node62</title>
<path fill="none" stroke="red" d="M2001.33,-327.3C2000.01,-319.58 1998.42,-310.31 1996.94,-301.71"/>
<polygon fill="red" stroke="red" points="2000.37,-300.97 1995.23,-291.7 1993.47,-302.15 2000.37,-300.97"/>
</g>
<!-- node65 -->
<g id="node66" class="node">
<title>node65</title>
<ellipse fill="lightgrey" stroke="black" cx="2092.29" cy="-273.6" rx="50.09" ry="18"/>
<text text-anchor="middle" x="2092.29" y="-269.9" font-family="Times New Roman,serif" font-size="14.00">Keira Metz</text>
</g>
<!-- node61&#45;&gt;node65 -->
<g id="edge65" class="edge">
<title>node61&#45;&gt;node65</title>
<path fill="none" stroke="green" d="M2025.6,-327.65C2037.36,-318.29 2052.11,-306.56 2064.75,-296.51"/>
<polygon fill="green" stroke="green" points="2067.05,-299.16 2072.69,-290.19 2062.69,-293.68 2067.05,-299.16"/>
</g>
<!-- node63 -->
<g id="node64" class="node">
<title>node63</title>
<ellipse fill="black" stroke="black" cx="1992.29" cy="-201.6" rx="1.8" ry="1.8"/>
</g>
<!-- node62&#45;&gt;node63 -->
<g id="edge63" class="edge">
<title>node62&#45;&gt;node63</title>
<path fill="none" stroke="red" d="M1992.29,-255.3C1992.29,-242.23 1992.29,-224.71 1992.29,-213.53"/>
<polygon fill="red" stroke="red" points="1995.79,-213.41 1992.29,-203.41 1988.79,-213.41 1995.79,-213.41"/>
</g>
<!-- node64 -->
<g id="node65" class="node">
<title>node64</title>
<ellipse fill="black" stroke="black" cx="2014.29" cy="-201.6" rx="1.8" ry="1.8"/>
</g>
<!-- node62&#45;&gt;node64 -->
<g id="edge64" class="edge">
<title>node62&#45;&gt;node64</title>
<path fill="none" stroke="green" d="M1997.62,-255.65C2001.77,-242.45 2007.4,-224.53 2010.94,-213.27"/>
<polygon fill="green" stroke="green" points="2014.38,-214.01 2014.04,-203.42 2007.7,-211.91 2014.38,-214.01"/>
</g>
<!-- node66 -->
<g id="node67" class="node">
<title>node66</title>
<ellipse fill="black" stroke="black" cx="2081.29" cy="-201.6" rx="1.8" ry="1.8"/>
</g>
<!-- node65&#45;&gt;node66 -->
<g id="edge66" class="edge">
<title>node65&#45;&gt;node66</title>
<path fill="none" stroke="red" d="M2089.58,-255.3C2087.52,-242.23 2084.77,-224.71 2083.01,-213.53"/>
<polygon fill="red" stroke="red" points="2086.43,-212.74 2081.42,-203.41 2079.52,-213.83 2086.43,-212.74"/>
</g>
<!-- node67 -->
<g id="node68" class="node">
<title>node67</title>
<ellipse fill="black" stroke="black" cx="2103.29" cy="-201.6" rx="1.8" ry="1.8"/>
</g>
<!-- node65&#45;&gt;node67 -->
<g id="edge67" class="edge">
<title>node65&#45;&gt;node67</title>
<path fill="none" stroke="green" d="M2095.01,-255.3C2097.07,-242.23 2099.82,-224.71 2101.58,-213.53"/>
<polygon fill="green" stroke="green" points="2105.07,-213.83 2103.17,-203.41 2098.16,-212.74 2105.07,-213.83"/>
</g>
<!-- node69 -->
<g id="node70" class="node">
<title>node69</title>
<ellipse fill="lightgrey" stroke="black" cx="2204.29" cy="-273.6" rx="43.59" ry="18"/>
<text text-anchor="middle" x="2204.29" y="-269.9" font-family="Times New Roman,serif" font-size="14.00">Yennefer</text>
</g>
<!-- node68&#45;&gt;node69 -->
<g id="edge69" class="edge">
<title>node68&#45;&gt;node69</title>
<path fill="none" stroke="red" d="M2204.29,-327.3C2204.29,-319.58 2204.29,-310.31 2204.29,-301.71"/>
<polygon fill="red" stroke="red" points="2207.79,-301.7 2204.29,-291.7 2200.79,-301.7 2207.79,-301.7"/>
</g>
<!-- node72 -->
<g id="node73" class="node">
<title>node72</title>
<ellipse fill="lightgrey" stroke="black" cx="2295.29" cy="-273.6" rx="29.5" ry="18"/>
<text text-anchor="middle" x="2295.29" y="-269.9" font-family="Times New Roman,serif" font-size="14.00">Triss</text>
</g>
<!-- node68&#45;&gt;node72 -->
<g id="edge72" class="edge">
<title>node68&#45;&gt;node72</title>
<path fill="none" stroke="green" d="M2224.49,-329.06C2237.8,-318.83 2255.34,-305.34 2269.63,-294.34"/>
<polygon fill="green" stroke="green" points="2271.82,-297.07 2277.61,-288.2 2267.55,-291.52 2271.82,-297.07"/>
</g>
<!-- node70 -->
<g id="node71" class="node">
<title>node70</title>
<ellipse fill="black" stroke="black" cx="2193.29" cy="-201.6" rx="1.8" ry="1.8"/>
</g>
<!-- node69&#45;&gt;node70 -->
<g id="edge70" class="edge">
<title>node69&#45;&gt;node70</title>
<path fill="none" stroke="red" d="M2201.58,-255.3C2199.52,-242.23 2196.77,-224.71 2195.01,-213.53"/>
<polygon fill="red" stroke="red" points="2198.43,-212.74 2193.42,-203.41 2191.52,-213.83 2198.43,-212.74"/>
</g>
<!-- node71 -->
<g id="node72" class="node">
<title>node71</title>
<ellipse fill="black" stroke="black" cx="2215.29" cy="-201.6" rx="1.8" ry="1.8"/>
</g>
<!-- node69&#45;&gt;node71 -->
<g id="edge71" class="edge">
<title>node69&#45;&gt;node71</title>
<path fill="none" stroke="green" d="M2207.01,-255.3C2209.07,-242.23 2211.82,-224.71 2213.58,-213.53"/>
<polygon fill="green" stroke="green" points="2217.07,-213.83 2215.17,-203.41 2210.16,-212.74 2217.07,-213.83"/>
</g>
<!-- node73 -->
<g id="node74" class="node">
<title>node73</title>
<ellipse fill="black" stroke="black" cx="2284.29" cy="-201.6" rx="1.8" ry="1.8"/>
</g>
<!-- node72&#45;&gt;node73 -->
<g id="edge73" class="edge">
<title>node72&#45;&gt;node73</title>
<path fill="none" stroke="red" d="M2292.63,-255.65C2290.58,-242.6 2287.8,-224.93 2286.03,-213.65"/>
<polygon fill="red" stroke="red" points="2289.43,-212.75 2284.42,-203.42 2282.52,-213.84 2289.43,-212.75"/>
</g>
<!-- node74 -->
<g id="node75" class="node">
<title>node74</title>
<ellipse fill="black" stroke="black" cx="2306.29" cy="-201.6" rx="1.8" ry="1.8"/>
</g>
<!-- node72&#45;&gt;node74 -->
<g id="edge74" class="edge">
<title>node72&#45;&gt;node74</title>
<path fill="none" stroke="green" d="M2297.96,-255.65C2300.01,-242.6 2302.78,-224.93 2304.56,-213.65"/>
<polygon fill="green" stroke="green" points="2308.07,-213.84 2306.17,-203.42 2301.16,-212.75 2308.07,-213.84"/>
</g>
</g>
</svg>
