<?xml version="1.0" encoding="UTF-8" standalone="no"?>
<!DOCTYPE svg PUBLIC "-//W3C//DTD SVG 1.1//EN"
 "http://www.w3.org/Graphics/SVG/1.1/DTD/svg11.dtd">
<!-- Generated by graphviz version 5.0.1 (20220820.1526)
 -->
<!-- Pages: 1 -->
<svg width="250pt" height="186pt"
 viewBox="0.00 0.00 249.99 185.60" xmlns="http://www.w3.org/2000/svg" xmlns:xlink="http://www.w3.org/1999/xlink">
<g id="graph0" class="graph" transform="scale(1 1) rotate(0) translate(4 181.6)">
<polygon fill="white" stroke="none" points="-4,4 -4,-181.6 245.99,-181.6 245.99,4 -4,4"/>
<!-- node0 -->
<g id="node1" class="node">
<title>node0</title>
<ellipse fill="none" stroke="black" cx="140.99" cy="-159.6" rx="49.29" ry="18"/>
<text text-anchor="middle" x="140.99" y="-155.9" font-family="Times New Roman,serif" font-size="14.00">cockroach</text>
</g>
<!-- node1 -->
<g id="node2" class="node">
<title>node1</title>
<ellipse fill="none" stroke="black" cx="77.99" cy="-72.6" rx="77.99" ry="18"/>
<text text-anchor="middle" x="77.99" y="-68.9" font-family="Times New Roman,serif" font-size="14.00">POLTORASHKA</text>
</g>
<!-- node0&#45;&gt;node1 -->
<g id="edge1" class="edge">
<title>node0&#45;&gt;node1</title>
<path fill="none" stroke="black" d="M128.55,-141.81C119.46,-129.55 106.98,-112.71 96.7,-98.84"/>
<polygon fill="black" stroke="black" points="99.4,-96.6 90.63,-90.65 93.77,-100.77 99.4,-96.6"/>
<text text-anchor="middle" x="122.99" y="-112.4" font-family="Times New Roman,serif" font-size="14.00">No</text>
</g>
<!-- node4 -->
<g id="node5" class="node">
<title>node4</title>
<ellipse fill="none" stroke="black" cx="205.99" cy="-72.6" rx="32.49" ry="18"/>
<text text-anchor="middle" x="205.99" y="-68.9" font-family="Times New Roman,serif" font-size="14.00">IVAN</text>
</g>
<!-- node0&#45;&gt;node4 -->
<g id="edge4" class="edge">
<title>node0&#45;&gt;node4</title>
<path fill="none" stroke="black" d="M153.83,-141.81C163.46,-129.23 176.76,-111.83 187.52,-97.76"/>
<polygon fill="black" stroke="black" points="190.54,-99.57 193.84,-89.5 184.98,-95.31 190.54,-99.57"/>
<text text-anchor="middle" x="188.99" y="-112.4" font-family="Times New Roman,serif" font-size="14.00">Yes</text>
</g>
<!-- node2 -->
<g id="node3" class="node">
<title>node2</title>
<ellipse fill="black" stroke="black" cx="57.99" cy="-1.8" rx="1.8" ry="1.8"/>
</g>
<!-- node1&#45;&gt;node2 -->
<g id="edge2" class="edge">
<title>node1&#45;&gt;node2</title>
<path fill="none" stroke="black" d="M66.63,-54.47C63.57,-48.99 60.65,-42.74 58.99,-36.6 56.99,-29.16 56.77,-20.47 57.04,-13.76"/>
<polygon fill="black" stroke="black" points="60.54,-13.91 57.88,-3.66 53.57,-13.34 60.54,-13.91"/>
<text text-anchor="middle" x="67.99" y="-25.4" font-family="Times New Roman,serif" font-size="14.00">No</text>
</g>
<!-- node3 -->
<g id="node4" class="node">
<title>node3</title>
<ellipse fill="black" stroke="black" cx="98.99" cy="-1.8" rx="1.8" ry="1.8"/>
</g>
<!-- node1&#45;&gt;node3 -->
<g id="edge3" class="edge">
<title>node1&#45;&gt;node3</title>
<path fill="none" stroke="black" d="M83.18,-54.59C87.15,-41.61 92.48,-24.14 95.83,-13.18"/>
<polygon fill="black" stroke="black" points="99.18,-14.18 98.75,-3.59 92.48,-12.14 99.18,-14.18"/>
<text text-anchor="middle" x="103.99" y="-25.4" font-family="Times New Roman,serif" font-size="14.00">Yes</text>
</g>
<!-- node5 -->
<g id="node6" class="node">
<title>node5</title>
<ellipse fill="black" stroke="black" cx="184.99" cy="-1.8" rx="1.8" ry="1.8"/>
</g>
<!-- node4&#45;&gt;node5 -->
<g id="edge5" class="edge">
<title>node4&#45;&gt;node5</title>
<path fill="none" stroke="black" d="M199.89,-54.59C197.92,-48.9 195.79,-42.5 193.99,-36.6 191.64,-28.87 189.31,-20.05 187.6,-13.36"/>
<polygon fill="black" stroke="black" points="191,-12.51 185.19,-3.64 184.2,-14.19 191,-12.51"/>
<text text-anchor="middle" x="202.99" y="-25.4" font-family="Times New Roman,serif" font-size="14.00">No</text>
</g>
<!-- node6 -->
<g id="node7" class="node">
<title>node6</title>
<ellipse fill="black" stroke="black" cx="225.99" cy="-1.8" rx="1.8" ry="1.8"/>
</g>
<!-- node4&#45;&gt;node6 -->
<g id="edge6" class="edge">
<title>node4&#45;&gt;node6</title>
<path fill="none" stroke="black" d="M210.94,-54.59C214.67,-41.76 219.68,-24.53 222.87,-13.55"/>
<polygon fill="black" stroke="black" points="226.33,-14.17 225.76,-3.59 219.61,-12.22 226.33,-14.17"/>
<text text-anchor="middle" x="230.99" y="-25.4" font-family="Times New Roman,serif" font-size="14.00">Yes</text>
</g>
</g>
</svg>
